solid OpenSCAD_Model
  facet normal -1.000000 -0.000000 -0.000000
    outer loop
      vertex -30.000000 -10.000000 0.000000
      vertex -30.000000 -10.000000 5.000000
      vertex -30.000000 10.000000 0.000000
    endloop
  endfacet
  facet normal -1.000000 0.000000 0.000000
    outer loop
      vertex -30.000000 10.000000 0.000000
      vertex -30.000000 -10.000000 5.000000
      vertex -30.000000 10.000000 5.000000
    endloop
  endfacet
  facet normal 0.000000 -1.000000 0.000000
    outer loop
      vertex -30.000000 -10.000000 5.000000
      vertex -30.000000 -10.000000 0.000000
      vertex -10.000000 -10.000000 0.000000
    endloop
  endfacet
  facet normal 0.000000 -1.000000 0.000000
    outer loop
      vertex -10.000000 -10.000000 5.000000
      vertex -30.000000 -10.000000 5.000000
      vertex -10.000000 -10.000000 0.000000
    endloop
  endfacet
  facet normal -0.000000 -0.000000 -1.000000
    outer loop
      vertex -30.000000 -10.000000 0.000000
      vertex -30.000000 10.000000 0.000000
      vertex -10.000000 -10.000000 0.000000
    endloop
  endfacet
  facet normal 0.000000 0.000000 -1.000000
    outer loop
      vertex -24.350000 8.000000 0.000000
      vertex -30.000000 10.000000 0.000000
      vertex -25.829415 10.000000 0.000000
    endloop
  endfacet
  facet normal 0.000000 0.000000 -1.000000
    outer loop
      vertex -20.338299 9.661701 0.000000
      vertex -22.967966 12.240936 0.000000
      vertex -21.032034 12.240936 0.000000
    endloop
  endfacet
  facet normal 0.000000 0.000000 -1.000000
    outer loop
      vertex -10.000000 -10.000000 0.000000
      vertex -21.032034 12.240936 0.000000
      vertex -19.287819 11.400967 0.000000
    endloop
  endfacet
  facet normal 0.000000 0.000000 -1.000000
    outer loop
      vertex -10.000000 -10.000000 0.000000
      vertex -19.287819 11.400967 0.000000
      vertex -18.170585 10.000000 0.000000
    endloop
  endfacet
  facet normal 0.000000 0.000000 -1.000000
    outer loop
      vertex -10.000000 -10.000000 0.000000
      vertex -18.170585 10.000000 0.000000
      vertex -12.389792 10.000000 0.000000
    endloop
  endfacet
  facet normal -0.000000 0.000000 -1.000000
    outer loop
      vertex -12.389792 10.000000 0.000000
      vertex -12.324660 10.619687 0.000000
      vertex -10.000000 -10.000000 0.000000
    endloop
  endfacet
  facet normal 0.000000 0.000000 -1.000000
    outer loop
      vertex -10.000000 -10.000000 0.000000
      vertex -12.324660 10.619687 0.000000
      vertex -11.510673 13.124882 0.000000
    endloop
  endfacet
  facet normal -0.000000 0.000000 -1.000000
    outer loop
      vertex -11.510673 13.124882 0.000000
      vertex -10.193614 15.406094 0.000000
      vertex -10.000000 -10.000000 0.000000
    endloop
  endfacet
  facet normal 0.000000 0.000000 -1.000000
    outer loop
      vertex -10.000000 -10.000000 0.000000
      vertex -10.193614 15.406094 0.000000
      vertex -10.000000 15.621124 0.000000
    endloop
  endfacet
  facet normal 0.000000 -0.000000 -1.000000
    outer loop
      vertex 0.000000 35.350000 0.000000
      vertex -10.000000 38.000000 0.000000
      vertex 10.000000 38.000000 0.000000
    endloop
  endfacet
  facet normal 0.000000 0.000000 -1.000000
    outer loop
      vertex 6.723751 13.362012 0.000000
      vertex 10.000000 38.000000 0.000000
      vertex 10.000000 15.621124 0.000000
    endloop
  endfacet
  facet normal -0.000000 0.000000 -1.000000
    outer loop
      vertex 7.748332 11.731400 0.000000
      vertex 11.510673 13.124882 0.000000
      vertex 8.384380 9.913680 0.000000
    endloop
  endfacet
  facet normal 0.000000 0.000000 -1.000000
    outer loop
      vertex 7.748332 11.731400 0.000000
      vertex 10.193614 15.406094 0.000000
      vertex 11.510673 13.124882 0.000000
    endloop
  endfacet
  facet normal 0.000000 0.000000 -1.000000
    outer loop
      vertex 8.600000 8.000000 0.000000
      vertex 11.510673 13.124882 0.000000
      vertex 12.324660 10.619687 0.000000
    endloop
  endfacet
  facet normal -0.000000 0.000000 -1.000000
    outer loop
      vertex 3.731400 0.251668 0.000000
      vertex 24.170585 10.000000 0.000000
      vertex -10.000000 -10.000000 0.000000
    endloop
  endfacet
  facet normal 0.000000 0.000000 -1.000000
    outer loop
      vertex 24.170585 10.000000 0.000000
      vertex 25.287819 11.400967 0.000000
      vertex 27.032034 12.240936 0.000000
    endloop
  endfacet
  facet normal 0.000000 0.000000 -1.000000
    outer loop
      vertex 24.170585 10.000000 0.000000
      vertex 27.032034 12.240936 0.000000
      vertex 28.967966 12.240936 0.000000
    endloop
  endfacet
  facet normal -0.000000 0.000000 -1.000000
    outer loop
      vertex 24.170585 10.000000 0.000000
      vertex 28.967966 12.240936 0.000000
      vertex -10.000000 -10.000000 0.000000
    endloop
  endfacet
  facet normal 0.000000 0.000000 -1.000000
    outer loop
      vertex 28.000000 10.350000 0.000000
      vertex 28.967966 12.240936 0.000000
      vertex 30.712181 11.400967 0.000000
    endloop
  endfacet
  facet normal 0.000000 0.000000 -1.000000
    outer loop
      vertex 29.661701 9.661701 0.000000
      vertex 30.712181 11.400967 0.000000
      vertex 31.829415 10.000000 0.000000
    endloop
  endfacet
  facet normal -0.000000 0.000000 -1.000000
    outer loop
      vertex 28.000000 5.650000 0.000000
      vertex 40.000000 10.000000 0.000000
      vertex -10.000000 -10.000000 0.000000
    endloop
  endfacet
  facet normal -0.000000 0.000000 -1.000000
    outer loop
      vertex 10.000000 -10.000000 0.000000
      vertex 40.000000 10.000000 0.000000
      vertex 40.000000 -10.000000 0.000000
    endloop
  endfacet
  facet normal -0.000000 0.000000 -1.000000
    outer loop
      vertex -10.000000 -10.000000 0.000000
      vertex 40.000000 10.000000 0.000000
      vertex 10.000000 -10.000000 0.000000
    endloop
  endfacet
  facet normal 0.000000 0.000000 -1.000000
    outer loop
      vertex -20.338299 6.338299 0.000000
      vertex -10.000000 -10.000000 0.000000
      vertex -22.000000 5.650000 0.000000
    endloop
  endfacet
  facet normal 0.000000 -0.000000 -1.000000
    outer loop
      vertex -1.661701 -15.338299 0.000000
      vertex -10.000000 -10.000000 0.000000
      vertex 0.000000 -14.650000 0.000000
    endloop
  endfacet
  facet normal 0.000000 0.000000 -1.000000
    outer loop
      vertex -23.661701 6.338299 0.000000
      vertex -30.000000 10.000000 0.000000
      vertex -24.350000 8.000000 0.000000
    endloop
  endfacet
  facet normal 0.000000 0.000000 -1.000000
    outer loop
      vertex -22.000000 5.650000 0.000000
      vertex -10.000000 -10.000000 0.000000
      vertex -23.661701 6.338299 0.000000
    endloop
  endfacet
  facet normal 0.000000 0.000000 -1.000000
    outer loop
      vertex -10.000000 -10.000000 0.000000
      vertex -30.000000 10.000000 0.000000
      vertex -23.661701 6.338299 0.000000
    endloop
  endfacet
  facet normal 0.000000 0.000000 -1.000000
    outer loop
      vertex -3.731400 0.251668 0.000000
      vertex -10.000000 -10.000000 0.000000
      vertex -5.362012 1.276249 0.000000
    endloop
  endfacet
  facet normal 0.000000 0.000000 -1.000000
    outer loop
      vertex -19.650000 8.000000 0.000000
      vertex -10.000000 -10.000000 0.000000
      vertex -20.338299 6.338299 0.000000
    endloop
  endfacet
  facet normal -0.000000 -0.000000 -1.000000
    outer loop
      vertex -22.000000 10.350000 0.000000
      vertex -22.967966 12.240936 0.000000
      vertex -20.338299 9.661701 0.000000
    endloop
  endfacet
  facet normal 0.000000 0.000000 -1.000000
    outer loop
      vertex -10.000000 -10.000000 0.000000
      vertex -19.650000 8.000000 0.000000
      vertex -21.032034 12.240936 0.000000
    endloop
  endfacet
  facet normal 0.000000 0.000000 -1.000000
    outer loop
      vertex -23.661701 9.661701 0.000000
      vertex -22.967966 12.240936 0.000000
      vertex -22.000000 10.350000 0.000000
    endloop
  endfacet
  facet normal 0.000000 0.000000 -1.000000
    outer loop
      vertex -19.650000 8.000000 0.000000
      vertex -20.338299 9.661701 0.000000
      vertex -21.032034 12.240936 0.000000
    endloop
  endfacet
  facet normal 0.000000 -0.000000 -1.000000
    outer loop
      vertex -23.661701 9.661701 0.000000
      vertex -24.712181 11.400967 0.000000
      vertex -22.967966 12.240936 0.000000
    endloop
  endfacet
  facet normal 0.000000 0.000000 -1.000000
    outer loop
      vertex 1.661701 -18.661701 0.000000
      vertex 10.000000 -22.000000 0.000000
      vertex 0.000000 -19.350000 0.000000
    endloop
  endfacet
  facet normal 0.000000 0.000000 -1.000000
    outer loop
      vertex -10.000000 15.621124 0.000000
      vertex -8.600000 8.000000 0.000000
      vertex -10.000000 -10.000000 0.000000
    endloop
  endfacet
  facet normal 0.000000 0.000000 -1.000000
    outer loop
      vertex -5.362012 14.723751 0.000000
      vertex 10.000000 38.000000 0.000000
      vertex -3.731400 15.748332 0.000000
    endloop
  endfacet
  facet normal 0.000000 0.000000 -1.000000
    outer loop
      vertex -8.600000 8.000000 0.000000
      vertex -8.384380 6.086320 0.000000
      vertex -10.000000 -10.000000 0.000000
    endloop
  endfacet
  facet normal 0.000000 0.000000 -1.000000
    outer loop
      vertex -3.731400 15.748332 0.000000
      vertex 10.000000 38.000000 0.000000
      vertex -1.913680 16.384380 0.000000
    endloop
  endfacet
  facet normal 0.000000 0.000000 -1.000000
    outer loop
      vertex -8.384380 6.086320 0.000000
      vertex -7.748332 4.268600 0.000000
      vertex -10.000000 -10.000000 0.000000
    endloop
  endfacet
  facet normal 0.000000 0.000000 -1.000000
    outer loop
      vertex -7.748332 4.268600 0.000000
      vertex -6.723751 2.637988 0.000000
      vertex -10.000000 -10.000000 0.000000
    endloop
  endfacet
  facet normal 0.000000 0.000000 -1.000000
    outer loop
      vertex -1.913680 16.384380 0.000000
      vertex 10.000000 38.000000 0.000000
      vertex 0.000000 16.600000 0.000000
    endloop
  endfacet
  facet normal 0.000000 0.000000 -1.000000
    outer loop
      vertex -6.723751 2.637988 0.000000
      vertex -5.362012 1.276249 0.000000
      vertex -10.000000 -10.000000 0.000000
    endloop
  endfacet
  facet normal -0.000000 0.000000 -1.000000
    outer loop
      vertex 0.000000 16.600000 0.000000
      vertex 10.000000 38.000000 0.000000
      vertex 1.913680 16.384380 0.000000
    endloop
  endfacet
  facet normal 0.000000 0.000000 -1.000000
    outer loop
      vertex 0.000000 -0.600000 0.000000
      vertex -10.000000 -10.000000 0.000000
      vertex -1.913680 -0.384380 0.000000
    endloop
  endfacet
  facet normal -0.000000 0.000000 -1.000000
    outer loop
      vertex 6.723751 13.362012 0.000000
      vertex 10.193614 15.406094 0.000000
      vertex 7.748332 11.731400 0.000000
    endloop
  endfacet
  facet normal 0.000000 0.000000 -1.000000
    outer loop
      vertex 1.913680 -0.384380 0.000000
      vertex -10.000000 -10.000000 0.000000
      vertex 0.000000 -0.600000 0.000000
    endloop
  endfacet
  facet normal -0.000000 0.000000 -1.000000
    outer loop
      vertex 7.748332 4.268600 0.000000
      vertex 12.389792 10.000000 0.000000
      vertex 6.723751 2.637988 0.000000
    endloop
  endfacet
  facet normal -0.000000 0.000000 -1.000000
    outer loop
      vertex 5.362012 1.276249 0.000000
      vertex 24.170585 10.000000 0.000000
      vertex 3.731400 0.251668 0.000000
    endloop
  endfacet
  facet normal -0.000000 0.000000 -1.000000
    outer loop
      vertex 1.913680 -0.384380 0.000000
      vertex 3.731400 0.251668 0.000000
      vertex -10.000000 -10.000000 0.000000
    endloop
  endfacet
  facet normal -0.000000 0.000000 -1.000000
    outer loop
      vertex 6.723751 2.637988 0.000000
      vertex 24.170585 10.000000 0.000000
      vertex 5.362012 1.276249 0.000000
    endloop
  endfacet
  facet normal 0.000000 0.000000 -1.000000
    outer loop
      vertex 12.389792 10.000000 0.000000
      vertex 24.170585 10.000000 0.000000
      vertex 6.723751 2.637988 0.000000
    endloop
  endfacet
  facet normal -0.000000 0.000000 -1.000000
    outer loop
      vertex 8.384380 6.086320 0.000000
      vertex 12.389792 10.000000 0.000000
      vertex 7.748332 4.268600 0.000000
    endloop
  endfacet
  facet normal -0.000000 0.000000 -1.000000
    outer loop
      vertex 8.600000 8.000000 0.000000
      vertex 12.389792 10.000000 0.000000
      vertex 8.384380 6.086320 0.000000
    endloop
  endfacet
  facet normal 0.000000 0.000000 -1.000000
    outer loop
      vertex 8.600000 8.000000 0.000000
      vertex 12.324660 10.619687 0.000000
      vertex 12.389792 10.000000 0.000000
    endloop
  endfacet
  facet normal -0.000000 0.000000 -1.000000
    outer loop
      vertex 8.384380 9.913680 0.000000
      vertex 11.510673 13.124882 0.000000
      vertex 8.600000 8.000000 0.000000
    endloop
  endfacet
  facet normal 0.000000 0.000000 -1.000000
    outer loop
      vertex 6.723751 13.362012 0.000000
      vertex 10.000000 15.621124 0.000000
      vertex 10.193614 15.406094 0.000000
    endloop
  endfacet
  facet normal -0.000000 0.000000 -1.000000
    outer loop
      vertex 5.362012 14.723751 0.000000
      vertex 10.000000 38.000000 0.000000
      vertex 6.723751 13.362012 0.000000
    endloop
  endfacet
  facet normal -0.000000 0.000000 -1.000000
    outer loop
      vertex 1.913680 16.384380 0.000000
      vertex 10.000000 38.000000 0.000000
      vertex 3.731400 15.748332 0.000000
    endloop
  endfacet
  facet normal -0.000000 0.000000 -1.000000
    outer loop
      vertex 3.731400 15.748332 0.000000
      vertex 10.000000 38.000000 0.000000
      vertex 5.362012 14.723751 0.000000
    endloop
  endfacet
  facet normal 0.000000 0.000000 -1.000000
    outer loop
      vertex -1.913680 -0.384380 0.000000
      vertex -10.000000 -10.000000 0.000000
      vertex -3.731400 0.251668 0.000000
    endloop
  endfacet
  facet normal -0.000000 0.000000 -1.000000
    outer loop
      vertex 2.350000 33.000000 0.000000
      vertex 10.000000 38.000000 0.000000
      vertex 1.661701 31.338299 0.000000
    endloop
  endfacet
  facet normal -0.000000 0.000000 -1.000000
    outer loop
      vertex -10.000000 15.621124 0.000000
      vertex 10.000000 38.000000 0.000000
      vertex -5.362012 14.723751 0.000000
    endloop
  endfacet
  facet normal 0.000000 0.000000 -1.000000
    outer loop
      vertex -10.000000 15.621124 0.000000
      vertex -5.362012 14.723751 0.000000
      vertex -6.723751 13.362012 0.000000
    endloop
  endfacet
  facet normal 0.000000 0.000000 -1.000000
    outer loop
      vertex -10.000000 15.621124 0.000000
      vertex -6.723751 13.362012 0.000000
      vertex -7.748332 11.731400 0.000000
    endloop
  endfacet
  facet normal 0.000000 0.000000 -1.000000
    outer loop
      vertex -10.000000 15.621124 0.000000
      vertex -7.748332 11.731400 0.000000
      vertex -8.384380 9.913680 0.000000
    endloop
  endfacet
  facet normal 0.000000 0.000000 -1.000000
    outer loop
      vertex -10.000000 15.621124 0.000000
      vertex -8.384380 9.913680 0.000000
      vertex -8.600000 8.000000 0.000000
    endloop
  endfacet
  facet normal 0.000000 0.000000 -1.000000
    outer loop
      vertex -24.350000 8.000000 0.000000
      vertex -25.829415 10.000000 0.000000
      vertex -24.712181 11.400967 0.000000
    endloop
  endfacet
  facet normal 0.000000 0.000000 -1.000000
    outer loop
      vertex 0.000000 -19.350000 0.000000
      vertex -10.000000 -22.000000 0.000000
      vertex -1.661701 -18.661701 0.000000
    endloop
  endfacet
  facet normal 0.000000 0.000000 -1.000000
    outer loop
      vertex 10.000000 -22.000000 0.000000
      vertex -10.000000 -22.000000 0.000000
      vertex 0.000000 -19.350000 0.000000
    endloop
  endfacet
  facet normal 0.000000 -0.000000 -1.000000
    outer loop
      vertex -24.350000 8.000000 0.000000
      vertex -24.712181 11.400967 0.000000
      vertex -23.661701 9.661701 0.000000
    endloop
  endfacet
  facet normal 0.000000 0.000000 -1.000000
    outer loop
      vertex 10.000000 -10.000000 0.000000
      vertex 10.000000 -22.000000 0.000000
      vertex 2.350000 -17.000000 0.000000
    endloop
  endfacet
  facet normal 0.000000 0.000000 -1.000000
    outer loop
      vertex 10.000000 -10.000000 0.000000
      vertex 2.350000 -17.000000 0.000000
      vertex 1.661701 -15.338299 0.000000
    endloop
  endfacet
  facet normal 0.000000 0.000000 -1.000000
    outer loop
      vertex 10.000000 -10.000000 0.000000
      vertex 1.661701 -15.338299 0.000000
      vertex -10.000000 -10.000000 0.000000
    endloop
  endfacet
  facet normal 0.000000 0.000000 -1.000000
    outer loop
      vertex 1.661701 -15.338299 0.000000
      vertex 0.000000 -14.650000 0.000000
      vertex -10.000000 -10.000000 0.000000
    endloop
  endfacet
  facet normal 0.000000 0.000000 -1.000000
    outer loop
      vertex -10.000000 -10.000000 0.000000
      vertex -1.661701 -15.338299 0.000000
      vertex -2.350000 -17.000000 0.000000
    endloop
  endfacet
  facet normal 0.000000 -0.000000 -1.000000
    outer loop
      vertex -10.000000 15.621124 0.000000
      vertex -10.000000 38.000000 0.000000
      vertex -2.350000 33.000000 0.000000
    endloop
  endfacet
  facet normal 0.000000 0.000000 -1.000000
    outer loop
      vertex -10.000000 15.621124 0.000000
      vertex -2.350000 33.000000 0.000000
      vertex -1.661701 31.338299 0.000000
    endloop
  endfacet
  facet normal 0.000000 0.000000 -1.000000
    outer loop
      vertex -10.000000 15.621124 0.000000
      vertex -1.661701 31.338299 0.000000
      vertex 0.000000 30.650000 0.000000
    endloop
  endfacet
  facet normal 0.000000 0.000000 -1.000000
    outer loop
      vertex -10.000000 15.621124 0.000000
      vertex 0.000000 30.650000 0.000000
      vertex 1.661701 31.338299 0.000000
    endloop
  endfacet
  facet normal 0.000000 0.000000 -1.000000
    outer loop
      vertex -10.000000 15.621124 0.000000
      vertex 1.661701 31.338299 0.000000
      vertex 10.000000 38.000000 0.000000
    endloop
  endfacet
  facet normal -0.000000 0.000000 -1.000000
    outer loop
      vertex 1.661701 34.661701 0.000000
      vertex 10.000000 38.000000 0.000000
      vertex 2.350000 33.000000 0.000000
    endloop
  endfacet
  facet normal 0.000000 -0.000000 -1.000000
    outer loop
      vertex 25.650000 8.000000 0.000000
      vertex -10.000000 -10.000000 0.000000
      vertex 26.338299 9.661701 0.000000
    endloop
  endfacet
  facet normal 0.000000 -0.000000 -1.000000
    outer loop
      vertex -1.661701 34.661701 0.000000
      vertex -10.000000 38.000000 0.000000
      vertex 0.000000 35.350000 0.000000
    endloop
  endfacet
  facet normal 0.000000 -0.000000 -1.000000
    outer loop
      vertex 1.661701 34.661701 0.000000
      vertex 0.000000 35.350000 0.000000
      vertex 10.000000 38.000000 0.000000
    endloop
  endfacet
  facet normal 0.000000 -0.000000 -1.000000
    outer loop
      vertex -2.350000 33.000000 0.000000
      vertex -10.000000 38.000000 0.000000
      vertex -1.661701 34.661701 0.000000
    endloop
  endfacet
  facet normal 0.000000 0.000000 -1.000000
    outer loop
      vertex 26.338299 6.338299 0.000000
      vertex -10.000000 -10.000000 0.000000
      vertex 25.650000 8.000000 0.000000
    endloop
  endfacet
  facet normal -0.000000 0.000000 -1.000000
    outer loop
      vertex 29.661701 9.661701 0.000000
      vertex 31.829415 10.000000 0.000000
      vertex 30.350000 8.000000 0.000000
    endloop
  endfacet
  facet normal -0.000000 0.000000 -1.000000
    outer loop
      vertex 30.350000 8.000000 0.000000
      vertex 40.000000 10.000000 0.000000
      vertex 29.661701 6.338299 0.000000
    endloop
  endfacet
  facet normal -0.000000 0.000000 -1.000000
    outer loop
      vertex 29.661701 6.338299 0.000000
      vertex 40.000000 10.000000 0.000000
      vertex 28.000000 5.650000 0.000000
    endloop
  endfacet
  facet normal 0.000000 0.000000 -1.000000
    outer loop
      vertex 26.338299 6.338299 0.000000
      vertex 28.000000 5.650000 0.000000
      vertex -10.000000 -10.000000 0.000000
    endloop
  endfacet
  facet normal 0.000000 0.000000 -1.000000
    outer loop
      vertex 31.829415 10.000000 0.000000
      vertex 40.000000 10.000000 0.000000
      vertex 30.350000 8.000000 0.000000
    endloop
  endfacet
  facet normal -0.000000 0.000000 -1.000000
    outer loop
      vertex 28.000000 10.350000 0.000000
      vertex 30.712181 11.400967 0.000000
      vertex 29.661701 9.661701 0.000000
    endloop
  endfacet
  facet normal 0.000000 0.000000 -1.000000
    outer loop
      vertex 26.338299 9.661701 0.000000
      vertex 28.967966 12.240936 0.000000
      vertex 28.000000 10.350000 0.000000
    endloop
  endfacet
  facet normal 0.000000 0.000000 -1.000000
    outer loop
      vertex -10.000000 -10.000000 0.000000
      vertex 28.967966 12.240936 0.000000
      vertex 26.338299 9.661701 0.000000
    endloop
  endfacet
  facet normal 0.000000 0.000000 -1.000000
    outer loop
      vertex 2.350000 -17.000000 0.000000
      vertex 10.000000 -22.000000 0.000000
      vertex 1.661701 -18.661701 0.000000
    endloop
  endfacet
  facet normal 0.000000 0.000000 -1.000000
    outer loop
      vertex -10.000000 -10.000000 0.000000
      vertex -2.350000 -17.000000 0.000000
      vertex -1.661701 -18.661701 0.000000
    endloop
  endfacet
  facet normal 0.000000 0.000000 -1.000000
    outer loop
      vertex -10.000000 -10.000000 0.000000
      vertex -1.661701 -18.661701 0.000000
      vertex -10.000000 -22.000000 0.000000
    endloop
  endfacet
  facet normal 0.000000 1.000000 0.000000
    outer loop
      vertex -30.000000 10.000000 0.000000
      vertex -30.000000 10.000000 5.000000
      vertex -25.829415 10.000000 0.000000
    endloop
  endfacet
  facet normal 0.000000 1.000000 0.000000
    outer loop
      vertex -25.829415 10.000000 0.000000
      vertex -30.000000 10.000000 5.000000
      vertex -25.829415 10.000000 5.000000
    endloop
  endfacet
  facet normal 0.000000 -0.000000 1.000000
    outer loop
      vertex -30.000000 10.000000 5.000000
      vertex -30.000000 -10.000000 5.000000
      vertex -10.000000 -10.000000 5.000000
    endloop
  endfacet
  facet normal 0.000000 0.000000 1.000000
    outer loop
      vertex -1.365229 -13.400187 5.000000
      vertex -30.000000 10.000000 5.000000
      vertex -10.000000 -10.000000 5.000000
    endloop
  endfacet
  facet normal 0.000000 -0.000000 1.000000
    outer loop
      vertex 3.409006 -18.789184 5.000000
      vertex 2.187049 -20.168488 5.000000
      vertex 10.000000 -22.000000 5.000000
    endloop
  endfacet
  facet normal 0.000000 0.000000 1.000000
    outer loop
      vertex 28.000000 10.350000 5.000000
      vertex 29.661701 9.661701 5.000000
      vertex 31.829415 10.000000 5.000000
    endloop
  endfacet
  facet normal 0.000000 0.000000 1.000000
    outer loop
      vertex 40.000000 -10.000000 5.000000
      vertex 40.000000 10.000000 5.000000
      vertex 31.829415 10.000000 5.000000
    endloop
  endfacet
  facet normal 0.000000 0.000000 1.000000
    outer loop
      vertex -18.170585 10.000000 5.000000
      vertex -19.287819 11.400967 5.000000
      vertex -22.000000 10.350000 5.000000
    endloop
  endfacet
  facet normal 0.000000 -0.000000 1.000000
    outer loop
      vertex -1.661701 31.338299 5.000000
      vertex -10.000000 15.621124 5.000000
      vertex 0.000000 30.650000 5.000000
    endloop
  endfacet
  facet normal 0.000000 0.000000 1.000000
    outer loop
      vertex -23.661701 6.338299 5.000000
      vertex -24.350000 8.000000 5.000000
      vertex -30.000000 10.000000 5.000000
    endloop
  endfacet
  facet normal -0.000000 0.000000 1.000000
    outer loop
      vertex 30.712181 11.400967 5.000000
      vertex 28.967966 12.240936 5.000000
      vertex 25.287819 11.400967 5.000000
    endloop
  endfacet
  facet normal 0.000000 0.000000 1.000000
    outer loop
      vertex 26.338299 6.338299 5.000000
      vertex 24.170585 10.000000 5.000000
      vertex 12.389792 10.000000 5.000000
    endloop
  endfacet
  facet normal -0.000000 0.000000 1.000000
    outer loop
      vertex 28.000000 10.350000 5.000000
      vertex 30.712181 11.400967 5.000000
      vertex 24.170585 10.000000 5.000000
    endloop
  endfacet
  facet normal 0.000000 0.000000 1.000000
    outer loop
      vertex 3.731400 15.748332 5.000000
      vertex 5.362012 14.723751 5.000000
      vertex 10.193614 15.406094 5.000000
    endloop
  endfacet
  facet normal 0.000000 0.000000 1.000000
    outer loop
      vertex 6.723751 13.362012 5.000000
      vertex 7.748332 11.731400 5.000000
      vertex 11.510673 13.124882 5.000000
    endloop
  endfacet
  facet normal 0.000000 0.000000 1.000000
    outer loop
      vertex -24.712181 11.400967 5.000000
      vertex -19.287819 11.400967 5.000000
      vertex -21.032034 12.240936 5.000000
    endloop
  endfacet
  facet normal -0.000000 0.000000 1.000000
    outer loop
      vertex -3.731400 15.748332 5.000000
      vertex 10.000000 38.000000 5.000000
      vertex -10.000000 15.621124 5.000000
    endloop
  endfacet
  facet normal 0.000000 0.000000 1.000000
    outer loop
      vertex -24.712181 11.400967 5.000000
      vertex -22.000000 10.350000 5.000000
      vertex -19.287819 11.400967 5.000000
    endloop
  endfacet
  facet normal 0.000000 0.000000 1.000000
    outer loop
      vertex 1.913680 16.384380 5.000000
      vertex 3.731400 15.748332 5.000000
      vertex 10.000000 15.621124 5.000000
    endloop
  endfacet
  facet normal -0.000000 0.000000 1.000000
    outer loop
      vertex -5.362012 14.723751 5.000000
      vertex -10.193614 15.406094 5.000000
      vertex -11.510673 13.124882 5.000000
    endloop
  endfacet
  facet normal 0.000000 -0.000000 1.000000
    outer loop
      vertex 0.000000 30.650000 5.000000
      vertex -10.000000 15.621124 5.000000
      vertex 1.661701 31.338299 5.000000
    endloop
  endfacet
  facet normal 0.000000 0.000000 1.000000
    outer loop
      vertex -8.600000 8.000000 5.000000
      vertex -12.389792 10.000000 5.000000
      vertex -18.170585 10.000000 5.000000
    endloop
  endfacet
  facet normal 0.000000 0.000000 1.000000
    outer loop
      vertex 3.731400 15.748332 5.000000
      vertex 10.193614 15.406094 5.000000
      vertex 10.000000 15.621124 5.000000
    endloop
  endfacet
  facet normal 0.000000 0.000000 1.000000
    outer loop
      vertex -22.000000 10.350000 5.000000
      vertex -20.338299 9.661701 5.000000
      vertex -18.170585 10.000000 5.000000
    endloop
  endfacet
  facet normal 0.000000 -0.000000 1.000000
    outer loop
      vertex -24.712181 11.400967 5.000000
      vertex -25.829415 10.000000 5.000000
      vertex -22.000000 10.350000 5.000000
    endloop
  endfacet
  facet normal 0.000000 0.000000 1.000000
    outer loop
      vertex -8.600000 8.000000 5.000000
      vertex -8.384380 9.913680 5.000000
      vertex -12.389792 10.000000 5.000000
    endloop
  endfacet
  facet normal 0.000000 -0.000000 1.000000
    outer loop
      vertex 3.850000 -17.000000 5.000000
      vertex 3.409006 -18.789184 5.000000
      vertex 10.000000 -22.000000 5.000000
    endloop
  endfacet
  facet normal 0.000000 0.000000 1.000000
    outer loop
      vertex 0.464066 -13.178071 5.000000
      vertex 10.000000 -10.000000 5.000000
      vertex -23.661701 6.338299 5.000000
    endloop
  endfacet
  facet normal 0.000000 0.000000 1.000000
    outer loop
      vertex -8.384380 9.913680 5.000000
      vertex -12.324660 10.619687 5.000000
      vertex -12.389792 10.000000 5.000000
    endloop
  endfacet
  facet normal 0.000000 0.000000 1.000000
    outer loop
      vertex -21.032034 12.240936 5.000000
      vertex -22.967966 12.240936 5.000000
      vertex -24.712181 11.400967 5.000000
    endloop
  endfacet
  facet normal 0.000000 0.000000 1.000000
    outer loop
      vertex -2.881766 -14.446978 5.000000
      vertex -1.365229 -13.400187 5.000000
      vertex -10.000000 -10.000000 5.000000
    endloop
  endfacet
  facet normal 0.000000 0.000000 1.000000
    outer loop
      vertex -8.384380 6.086320 5.000000
      vertex -18.170585 10.000000 5.000000
      vertex -20.338299 9.661701 5.000000
    endloop
  endfacet
  facet normal 0.000000 0.000000 1.000000
    outer loop
      vertex -7.748332 4.268600 5.000000
      vertex -20.338299 9.661701 5.000000
      vertex -19.650000 8.000000 5.000000
    endloop
  endfacet
  facet normal 0.000000 0.000000 1.000000
    outer loop
      vertex -23.661701 9.661701 5.000000
      vertex -22.000000 10.350000 5.000000
      vertex -25.829415 10.000000 5.000000
    endloop
  endfacet
  facet normal 0.000000 0.000000 1.000000
    outer loop
      vertex -23.661701 6.338299 5.000000
      vertex 10.000000 -10.000000 5.000000
      vertex -22.000000 5.650000 5.000000
    endloop
  endfacet
  facet normal 0.000000 -0.000000 1.000000
    outer loop
      vertex 5.362012 1.276249 5.000000
      vertex 3.731400 0.251668 5.000000
      vertex 40.000000 -10.000000 5.000000
    endloop
  endfacet
  facet normal 0.000000 -0.000000 1.000000
    outer loop
      vertex 7.748332 4.268600 5.000000
      vertex 6.723751 2.637988 5.000000
      vertex 40.000000 -10.000000 5.000000
    endloop
  endfacet
  facet normal 0.000000 0.000000 1.000000
    outer loop
      vertex -1.365229 -13.400187 5.000000
      vertex -23.661701 6.338299 5.000000
      vertex -30.000000 10.000000 5.000000
    endloop
  endfacet
  facet normal 0.000000 0.000000 1.000000
    outer loop
      vertex -7.748332 11.731400 5.000000
      vertex -6.723751 13.362012 5.000000
      vertex -11.510673 13.124882 5.000000
    endloop
  endfacet
  facet normal 0.000000 0.000000 1.000000
    outer loop
      vertex -24.350000 8.000000 5.000000
      vertex -25.829415 10.000000 5.000000
      vertex -30.000000 10.000000 5.000000
    endloop
  endfacet
  facet normal 0.000000 0.000000 1.000000
    outer loop
      vertex -5.362012 14.723751 5.000000
      vertex -10.000000 15.621124 5.000000
      vertex -10.193614 15.406094 5.000000
    endloop
  endfacet
  facet normal 0.000000 0.000000 1.000000
    outer loop
      vertex 7.748332 11.731400 5.000000
      vertex 8.384380 9.913680 5.000000
      vertex 12.389792 10.000000 5.000000
    endloop
  endfacet
  facet normal -0.000000 0.000000 1.000000
    outer loop
      vertex -1.913680 16.384380 5.000000
      vertex 10.000000 38.000000 5.000000
      vertex -3.731400 15.748332 5.000000
    endloop
  endfacet
  facet normal -0.000000 0.000000 1.000000
    outer loop
      vertex 0.000000 16.600000 5.000000
      vertex 10.000000 38.000000 5.000000
      vertex -1.913680 16.384380 5.000000
    endloop
  endfacet
  facet normal 0.000000 0.000000 1.000000
    outer loop
      vertex 10.000000 15.621124 5.000000
      vertex 10.000000 38.000000 5.000000
      vertex 0.000000 16.600000 5.000000
    endloop
  endfacet
  facet normal 0.000000 0.000000 1.000000
    outer loop
      vertex 10.000000 15.621124 5.000000
      vertex 0.000000 16.600000 5.000000
      vertex 1.913680 16.384380 5.000000
    endloop
  endfacet
  facet normal 0.000000 0.000000 1.000000
    outer loop
      vertex -1.365229 -13.400187 5.000000
      vertex 0.464066 -13.178071 5.000000
      vertex -23.661701 6.338299 5.000000
    endloop
  endfacet
  facet normal 0.000000 0.000000 1.000000
    outer loop
      vertex 11.510673 13.124882 5.000000
      vertex 10.193614 15.406094 5.000000
      vertex 5.362012 14.723751 5.000000
    endloop
  endfacet
  facet normal 0.000000 0.000000 1.000000
    outer loop
      vertex -24.350000 8.000000 5.000000
      vertex -23.661701 9.661701 5.000000
      vertex -25.829415 10.000000 5.000000
    endloop
  endfacet
  facet normal 0.000000 0.000000 1.000000
    outer loop
      vertex 11.510673 13.124882 5.000000
      vertex 5.362012 14.723751 5.000000
      vertex 6.723751 13.362012 5.000000
    endloop
  endfacet
  facet normal 0.000000 0.000000 1.000000
    outer loop
      vertex 40.000000 -10.000000 5.000000
      vertex 12.389792 10.000000 5.000000
      vertex 8.384380 9.913680 5.000000
    endloop
  endfacet
  facet normal 0.000000 0.000000 1.000000
    outer loop
      vertex 40.000000 -10.000000 5.000000
      vertex 8.384380 9.913680 5.000000
      vertex 8.600000 8.000000 5.000000
    endloop
  endfacet
  facet normal 0.000000 0.000000 1.000000
    outer loop
      vertex 40.000000 -10.000000 5.000000
      vertex 8.600000 8.000000 5.000000
      vertex 8.384380 6.086320 5.000000
    endloop
  endfacet
  facet normal 0.000000 0.000000 1.000000
    outer loop
      vertex 40.000000 -10.000000 5.000000
      vertex 8.384380 6.086320 5.000000
      vertex 7.748332 4.268600 5.000000
    endloop
  endfacet
  facet normal 0.000000 -0.000000 1.000000
    outer loop
      vertex 3.731400 0.251668 5.000000
      vertex 1.913680 -0.384380 5.000000
      vertex 40.000000 -10.000000 5.000000
    endloop
  endfacet
  facet normal 0.000000 -0.000000 1.000000
    outer loop
      vertex 6.723751 2.637988 5.000000
      vertex 5.362012 1.276249 5.000000
      vertex 40.000000 -10.000000 5.000000
    endloop
  endfacet
  facet normal 0.000000 0.000000 1.000000
    outer loop
      vertex -3.731400 0.251668 5.000000
      vertex -5.362012 1.276249 5.000000
      vertex -20.338299 6.338299 5.000000
    endloop
  endfacet
  facet normal 0.000000 0.000000 1.000000
    outer loop
      vertex -8.384380 6.086320 5.000000
      vertex -8.600000 8.000000 5.000000
      vertex -18.170585 10.000000 5.000000
    endloop
  endfacet
  facet normal 0.000000 -0.000000 1.000000
    outer loop
      vertex -20.338299 6.338299 5.000000
      vertex -22.000000 5.650000 5.000000
      vertex 10.000000 -10.000000 5.000000
    endloop
  endfacet
  facet normal 0.000000 0.000000 1.000000
    outer loop
      vertex -6.723751 2.637988 5.000000
      vertex -19.650000 8.000000 5.000000
      vertex -20.338299 6.338299 5.000000
    endloop
  endfacet
  facet normal 0.000000 0.000000 1.000000
    outer loop
      vertex 10.000000 -10.000000 5.000000
      vertex 40.000000 -10.000000 5.000000
      vertex 1.913680 -0.384380 5.000000
    endloop
  endfacet
  facet normal 0.000000 0.000000 1.000000
    outer loop
      vertex -5.362012 1.276249 5.000000
      vertex -6.723751 2.637988 5.000000
      vertex -20.338299 6.338299 5.000000
    endloop
  endfacet
  facet normal 0.000000 0.000000 1.000000
    outer loop
      vertex 10.000000 -10.000000 5.000000
      vertex 1.913680 -0.384380 5.000000
      vertex 0.000000 -0.600000 5.000000
    endloop
  endfacet
  facet normal 0.000000 0.000000 1.000000
    outer loop
      vertex -6.723751 2.637988 5.000000
      vertex -7.748332 4.268600 5.000000
      vertex -19.650000 8.000000 5.000000
    endloop
  endfacet
  facet normal 0.000000 0.000000 1.000000
    outer loop
      vertex 10.000000 -10.000000 5.000000
      vertex 0.000000 -0.600000 5.000000
      vertex -1.913680 -0.384380 5.000000
    endloop
  endfacet
  facet normal 0.000000 0.000000 1.000000
    outer loop
      vertex 10.000000 -10.000000 5.000000
      vertex -3.731400 0.251668 5.000000
      vertex -20.338299 6.338299 5.000000
    endloop
  endfacet
  facet normal 0.000000 0.000000 1.000000
    outer loop
      vertex 10.000000 -10.000000 5.000000
      vertex -1.913680 -0.384380 5.000000
      vertex -3.731400 0.251668 5.000000
    endloop
  endfacet
  facet normal 0.000000 0.000000 1.000000
    outer loop
      vertex -7.748332 4.268600 5.000000
      vertex -8.384380 6.086320 5.000000
      vertex -20.338299 9.661701 5.000000
    endloop
  endfacet
  facet normal 0.000000 0.000000 1.000000
    outer loop
      vertex -8.384380 9.913680 5.000000
      vertex -7.748332 11.731400 5.000000
      vertex -12.324660 10.619687 5.000000
    endloop
  endfacet
  facet normal 0.000000 0.000000 1.000000
    outer loop
      vertex -10.000000 -22.000000 5.000000
      vertex -3.738126 -17.921365 5.000000
      vertex -10.000000 -10.000000 5.000000
    endloop
  endfacet
  facet normal 0.000000 0.000000 1.000000
    outer loop
      vertex -3.738126 -17.921365 5.000000
      vertex -3.738126 -16.078635 5.000000
      vertex -10.000000 -10.000000 5.000000
    endloop
  endfacet
  facet normal -0.000000 0.000000 1.000000
    outer loop
      vertex 0.464066 -20.821929 5.000000
      vertex -1.365229 -20.599813 5.000000
      vertex -10.000000 -22.000000 5.000000
    endloop
  endfacet
  facet normal 0.000000 0.000000 1.000000
    outer loop
      vertex -3.738126 -16.078635 5.000000
      vertex -2.881766 -14.446978 5.000000
      vertex -10.000000 -10.000000 5.000000
    endloop
  endfacet
  facet normal 0.000000 0.000000 1.000000
    outer loop
      vertex 2.187049 -13.831512 5.000000
      vertex 10.000000 -10.000000 5.000000
      vertex 0.464066 -13.178071 5.000000
    endloop
  endfacet
  facet normal 0.000000 0.000000 1.000000
    outer loop
      vertex 10.000000 -22.000000 5.000000
      vertex 10.000000 -10.000000 5.000000
      vertex 2.187049 -13.831512 5.000000
    endloop
  endfacet
  facet normal 0.000000 0.000000 1.000000
    outer loop
      vertex 10.000000 -22.000000 5.000000
      vertex 2.187049 -13.831512 5.000000
      vertex 3.409006 -15.210816 5.000000
    endloop
  endfacet
  facet normal 0.000000 0.000000 1.000000
    outer loop
      vertex 3.409006 -15.210816 5.000000
      vertex 3.850000 -17.000000 5.000000
      vertex 10.000000 -22.000000 5.000000
    endloop
  endfacet
  facet normal 0.000000 0.000000 1.000000
    outer loop
      vertex 1.661701 34.661701 5.000000
      vertex 2.350000 33.000000 5.000000
      vertex 10.000000 38.000000 5.000000
    endloop
  endfacet
  facet normal 0.000000 0.000000 1.000000
    outer loop
      vertex 0.464066 -20.821929 5.000000
      vertex 10.000000 -22.000000 5.000000
      vertex 2.187049 -20.168488 5.000000
    endloop
  endfacet
  facet normal 0.000000 0.000000 1.000000
    outer loop
      vertex 0.000000 35.350000 5.000000
      vertex 1.661701 34.661701 5.000000
      vertex 10.000000 38.000000 5.000000
    endloop
  endfacet
  facet normal 0.000000 0.000000 1.000000
    outer loop
      vertex -10.000000 -22.000000 5.000000
      vertex 10.000000 -22.000000 5.000000
      vertex 0.464066 -20.821929 5.000000
    endloop
  endfacet
  facet normal 0.000000 0.000000 1.000000
    outer loop
      vertex -10.000000 -22.000000 5.000000
      vertex -2.881766 -19.553022 5.000000
      vertex -3.738126 -17.921365 5.000000
    endloop
  endfacet
  facet normal 0.000000 0.000000 1.000000
    outer loop
      vertex -10.000000 -22.000000 5.000000
      vertex -1.365229 -20.599813 5.000000
      vertex -2.881766 -19.553022 5.000000
    endloop
  endfacet
  facet normal -0.000000 -0.000000 1.000000
    outer loop
      vertex -2.350000 33.000000 5.000000
      vertex -10.000000 38.000000 5.000000
      vertex -1.661701 31.338299 5.000000
    endloop
  endfacet
  facet normal 0.000000 -0.000000 1.000000
    outer loop
      vertex 2.350000 33.000000 5.000000
      vertex 1.661701 31.338299 5.000000
      vertex 10.000000 38.000000 5.000000
    endloop
  endfacet
  facet normal -0.000000 0.000000 1.000000
    outer loop
      vertex -1.661701 34.661701 5.000000
      vertex -10.000000 38.000000 5.000000
      vertex -2.350000 33.000000 5.000000
    endloop
  endfacet
  facet normal -0.000000 0.000000 1.000000
    outer loop
      vertex 0.000000 35.350000 5.000000
      vertex -10.000000 38.000000 5.000000
      vertex -1.661701 34.661701 5.000000
    endloop
  endfacet
  facet normal 0.000000 0.000000 1.000000
    outer loop
      vertex 10.000000 38.000000 5.000000
      vertex -10.000000 38.000000 5.000000
      vertex 0.000000 35.350000 5.000000
    endloop
  endfacet
  facet normal -0.000000 -0.000000 1.000000
    outer loop
      vertex 28.000000 5.650000 5.000000
      vertex 26.338299 6.338299 5.000000
      vertex 40.000000 -10.000000 5.000000
    endloop
  endfacet
  facet normal 0.000000 0.000000 1.000000
    outer loop
      vertex -10.000000 15.621124 5.000000
      vertex 10.000000 38.000000 5.000000
      vertex 1.661701 31.338299 5.000000
    endloop
  endfacet
  facet normal 0.000000 0.000000 1.000000
    outer loop
      vertex 40.000000 -10.000000 5.000000
      vertex 26.338299 6.338299 5.000000
      vertex 12.389792 10.000000 5.000000
    endloop
  endfacet
  facet normal -0.000000 -0.000000 1.000000
    outer loop
      vertex 25.650000 8.000000 5.000000
      vertex 24.170585 10.000000 5.000000
      vertex 26.338299 6.338299 5.000000
    endloop
  endfacet
  facet normal 0.000000 0.000000 1.000000
    outer loop
      vertex 25.650000 8.000000 5.000000
      vertex 26.338299 9.661701 5.000000
      vertex 24.170585 10.000000 5.000000
    endloop
  endfacet
  facet normal 0.000000 -0.000000 1.000000
    outer loop
      vertex 29.661701 6.338299 5.000000
      vertex 28.000000 5.650000 5.000000
      vertex 40.000000 -10.000000 5.000000
    endloop
  endfacet
  facet normal 0.000000 0.000000 1.000000
    outer loop
      vertex 31.829415 10.000000 5.000000
      vertex 30.712181 11.400967 5.000000
      vertex 28.000000 10.350000 5.000000
    endloop
  endfacet
  facet normal 0.000000 0.000000 1.000000
    outer loop
      vertex 40.000000 -10.000000 5.000000
      vertex 31.829415 10.000000 5.000000
      vertex 29.661701 9.661701 5.000000
    endloop
  endfacet
  facet normal 0.000000 0.000000 1.000000
    outer loop
      vertex 40.000000 -10.000000 5.000000
      vertex 29.661701 9.661701 5.000000
      vertex 30.350000 8.000000 5.000000
    endloop
  endfacet
  facet normal 0.000000 0.000000 1.000000
    outer loop
      vertex 40.000000 -10.000000 5.000000
      vertex 30.350000 8.000000 5.000000
      vertex 29.661701 6.338299 5.000000
    endloop
  endfacet
  facet normal 0.000000 0.000000 1.000000
    outer loop
      vertex 26.338299 9.661701 5.000000
      vertex 28.000000 10.350000 5.000000
      vertex 24.170585 10.000000 5.000000
    endloop
  endfacet
  facet normal 0.000000 -0.000000 1.000000
    outer loop
      vertex 27.032034 12.240936 5.000000
      vertex 25.287819 11.400967 5.000000
      vertex 28.967966 12.240936 5.000000
    endloop
  endfacet
  facet normal 0.000000 -0.000000 1.000000
    outer loop
      vertex 25.287819 11.400967 5.000000
      vertex 24.170585 10.000000 5.000000
      vertex 30.712181 11.400967 5.000000
    endloop
  endfacet
  facet normal 0.000000 0.000000 1.000000
    outer loop
      vertex 12.324660 10.619687 5.000000
      vertex 11.510673 13.124882 5.000000
      vertex 7.748332 11.731400 5.000000
    endloop
  endfacet
  facet normal 0.000000 -0.000000 1.000000
    outer loop
      vertex -10.000000 38.000000 5.000000
      vertex -10.000000 15.621124 5.000000
      vertex -1.661701 31.338299 5.000000
    endloop
  endfacet
  facet normal -0.000000 0.000000 1.000000
    outer loop
      vertex -6.723751 13.362012 5.000000
      vertex -5.362012 14.723751 5.000000
      vertex -11.510673 13.124882 5.000000
    endloop
  endfacet
  facet normal 0.000000 0.000000 1.000000
    outer loop
      vertex -5.362012 14.723751 5.000000
      vertex -3.731400 15.748332 5.000000
      vertex -10.000000 15.621124 5.000000
    endloop
  endfacet
  facet normal 0.000000 0.000000 1.000000
    outer loop
      vertex 7.748332 11.731400 5.000000
      vertex 12.389792 10.000000 5.000000
      vertex 12.324660 10.619687 5.000000
    endloop
  endfacet
  facet normal 0.000000 -0.000000 1.000000
    outer loop
      vertex -11.510673 13.124882 5.000000
      vertex -12.324660 10.619687 5.000000
      vertex -7.748332 11.731400 5.000000
    endloop
  endfacet
  facet normal -1.000000 -0.000000 -0.000000
    outer loop
      vertex -10.000000 -22.000000 0.000000
      vertex -10.000000 -22.000000 5.000000
      vertex -10.000000 -10.000000 0.000000
    endloop
  endfacet
  facet normal -1.000000 0.000000 0.000000
    outer loop
      vertex -10.000000 -10.000000 0.000000
      vertex -10.000000 -22.000000 5.000000
      vertex -10.000000 -10.000000 5.000000
    endloop
  endfacet
  facet normal 0.000000 -1.000000 0.000000
    outer loop
      vertex -10.000000 -22.000000 5.000000
      vertex -10.000000 -22.000000 0.000000
      vertex 10.000000 -22.000000 0.000000
    endloop
  endfacet
  facet normal 0.000000 -1.000000 0.000000
    outer loop
      vertex 10.000000 -22.000000 5.000000
      vertex -10.000000 -22.000000 5.000000
      vertex 10.000000 -22.000000 0.000000
    endloop
  endfacet
  facet normal 1.000000 0.000000 -0.000000
    outer loop
      vertex 10.000000 -22.000000 5.000000
      vertex 10.000000 -22.000000 0.000000
      vertex 10.000000 -10.000000 0.000000
    endloop
  endfacet
  facet normal 1.000000 0.000000 0.000000
    outer loop
      vertex 10.000000 -10.000000 5.000000
      vertex 10.000000 -22.000000 5.000000
      vertex 10.000000 -10.000000 0.000000
    endloop
  endfacet
  facet normal 0.000000 -1.000000 0.000000
    outer loop
      vertex 10.000000 -10.000000 5.000000
      vertex 10.000000 -10.000000 0.000000
      vertex 40.000000 -10.000000 0.000000
    endloop
  endfacet
  facet normal 0.000000 -1.000000 0.000000
    outer loop
      vertex 40.000000 -10.000000 5.000000
      vertex 10.000000 -10.000000 5.000000
      vertex 40.000000 -10.000000 0.000000
    endloop
  endfacet
  facet normal 1.000000 0.000000 -0.000000
    outer loop
      vertex 40.000000 -10.000000 5.000000
      vertex 40.000000 -10.000000 0.000000
      vertex 40.000000 10.000000 0.000000
    endloop
  endfacet
  facet normal 1.000000 0.000000 0.000000
    outer loop
      vertex 40.000000 10.000000 5.000000
      vertex 40.000000 -10.000000 5.000000
      vertex 40.000000 10.000000 0.000000
    endloop
  endfacet
  facet normal 0.000000 1.000000 0.000000
    outer loop
      vertex 31.829415 10.000000 0.000000
      vertex 31.829415 10.000000 5.000000
      vertex 40.000000 10.000000 0.000000
    endloop
  endfacet
  facet normal 0.000000 1.000000 0.000000
    outer loop
      vertex 40.000000 10.000000 0.000000
      vertex 31.829415 10.000000 5.000000
      vertex 40.000000 10.000000 5.000000
    endloop
  endfacet
  facet normal 0.781832 0.623490 0.000000
    outer loop
      vertex 31.829415 10.000000 0.000000
      vertex 30.712181 11.400967 0.000000
      vertex 30.712181 11.400967 5.000000
    endloop
  endfacet
  facet normal 0.781832 0.623490 -0.000000
    outer loop
      vertex 31.829415 10.000000 5.000000
      vertex 31.829415 10.000000 0.000000
      vertex 30.712181 11.400967 5.000000
    endloop
  endfacet
  facet normal 0.433883 0.900969 0.000000
    outer loop
      vertex 28.967966 12.240936 0.000000
      vertex 28.967966 12.240936 5.000000
      vertex 30.712181 11.400967 0.000000
    endloop
  endfacet
  facet normal 0.433883 0.900969 0.000000
    outer loop
      vertex 30.712181 11.400967 0.000000
      vertex 28.967966 12.240936 5.000000
      vertex 30.712181 11.400967 5.000000
    endloop
  endfacet
  facet normal 0.000000 1.000000 0.000000
    outer loop
      vertex 27.032034 12.240936 0.000000
      vertex 27.032034 12.240936 5.000000
      vertex 28.967966 12.240936 0.000000
    endloop
  endfacet
  facet normal 0.000000 1.000000 0.000000
    outer loop
      vertex 28.967966 12.240936 0.000000
      vertex 27.032034 12.240936 5.000000
      vertex 28.967966 12.240936 5.000000
    endloop
  endfacet
  facet normal -0.433883 0.900969 0.000000
    outer loop
      vertex 25.287819 11.400967 0.000000
      vertex 25.287819 11.400967 5.000000
      vertex 27.032034 12.240936 0.000000
    endloop
  endfacet
  facet normal -0.433883 0.900969 0.000000
    outer loop
      vertex 27.032034 12.240936 0.000000
      vertex 25.287819 11.400967 5.000000
      vertex 27.032034 12.240936 5.000000
    endloop
  endfacet
  facet normal -0.781832 0.623490 0.000000
    outer loop
      vertex 24.170585 10.000000 0.000000
      vertex 24.170585 10.000000 5.000000
      vertex 25.287819 11.400967 0.000000
    endloop
  endfacet
  facet normal -0.781832 0.623490 0.000000
    outer loop
      vertex 25.287819 11.400967 0.000000
      vertex 24.170585 10.000000 5.000000
      vertex 25.287819 11.400967 5.000000
    endloop
  endfacet
  facet normal 0.000000 1.000000 0.000000
    outer loop
      vertex 12.389792 10.000000 0.000000
      vertex 12.389792 10.000000 5.000000
      vertex 24.170585 10.000000 0.000000
    endloop
  endfacet
  facet normal 0.000000 1.000000 0.000000
    outer loop
      vertex 24.170585 10.000000 0.000000
      vertex 12.389792 10.000000 5.000000
      vertex 24.170585 10.000000 5.000000
    endloop
  endfacet
  facet normal 0.994522 0.104528 0.000000
    outer loop
      vertex 12.389792 10.000000 0.000000
      vertex 12.324660 10.619687 0.000000
      vertex 12.324660 10.619687 5.000000
    endloop
  endfacet
  facet normal 0.994522 0.104528 -0.000000
    outer loop
      vertex 12.389792 10.000000 5.000000
      vertex 12.389792 10.000000 0.000000
      vertex 12.324660 10.619687 5.000000
    endloop
  endfacet
  facet normal 0.951057 0.309017 0.000000
    outer loop
      vertex 12.324660 10.619687 0.000000
      vertex 11.510673 13.124882 0.000000
      vertex 11.510673 13.124882 5.000000
    endloop
  endfacet
  facet normal 0.951057 0.309017 -0.000000
    outer loop
      vertex 12.324660 10.619687 5.000000
      vertex 12.324660 10.619687 0.000000
      vertex 11.510673 13.124882 5.000000
    endloop
  endfacet
  facet normal 0.866025 0.500000 0.000000
    outer loop
      vertex 11.510673 13.124882 0.000000
      vertex 10.193614 15.406094 0.000000
      vertex 10.193614 15.406094 5.000000
    endloop
  endfacet
  facet normal 0.866025 0.500000 -0.000000
    outer loop
      vertex 11.510673 13.124882 5.000000
      vertex 11.510673 13.124882 0.000000
      vertex 10.193614 15.406094 5.000000
    endloop
  endfacet
  facet normal 0.743145 0.669130 0.000000
    outer loop
      vertex 10.193614 15.406094 0.000000
      vertex 10.000000 15.621124 0.000000
      vertex 10.000000 15.621124 5.000000
    endloop
  endfacet
  facet normal 0.743145 0.669130 -0.000000
    outer loop
      vertex 10.193614 15.406094 5.000000
      vertex 10.193614 15.406094 0.000000
      vertex 10.000000 15.621124 5.000000
    endloop
  endfacet
  facet normal 1.000000 0.000000 -0.000000
    outer loop
      vertex 10.000000 15.621124 5.000000
      vertex 10.000000 15.621124 0.000000
      vertex 10.000000 38.000000 0.000000
    endloop
  endfacet
  facet normal 1.000000 0.000000 0.000000
    outer loop
      vertex 10.000000 38.000000 5.000000
      vertex 10.000000 15.621124 5.000000
      vertex 10.000000 38.000000 0.000000
    endloop
  endfacet
  facet normal 0.000000 1.000000 0.000000
    outer loop
      vertex -10.000000 38.000000 0.000000
      vertex -10.000000 38.000000 5.000000
      vertex 10.000000 38.000000 0.000000
    endloop
  endfacet
  facet normal 0.000000 1.000000 0.000000
    outer loop
      vertex 10.000000 38.000000 0.000000
      vertex -10.000000 38.000000 5.000000
      vertex 10.000000 38.000000 5.000000
    endloop
  endfacet
  facet normal -1.000000 -0.000000 -0.000000
    outer loop
      vertex -10.000000 15.621124 0.000000
      vertex -10.000000 15.621124 5.000000
      vertex -10.000000 38.000000 0.000000
    endloop
  endfacet
  facet normal -1.000000 0.000000 0.000000
    outer loop
      vertex -10.000000 38.000000 0.000000
      vertex -10.000000 15.621124 5.000000
      vertex -10.000000 38.000000 5.000000
    endloop
  endfacet
  facet normal -0.743145 0.669130 0.000000
    outer loop
      vertex -10.193614 15.406094 0.000000
      vertex -10.193614 15.406094 5.000000
      vertex -10.000000 15.621124 0.000000
    endloop
  endfacet
  facet normal -0.743145 0.669130 0.000000
    outer loop
      vertex -10.000000 15.621124 0.000000
      vertex -10.193614 15.406094 5.000000
      vertex -10.000000 15.621124 5.000000
    endloop
  endfacet
  facet normal -0.866025 0.500000 0.000000
    outer loop
      vertex -11.510673 13.124882 0.000000
      vertex -11.510673 13.124882 5.000000
      vertex -10.193614 15.406094 0.000000
    endloop
  endfacet
  facet normal -0.866025 0.500000 0.000000
    outer loop
      vertex -10.193614 15.406094 0.000000
      vertex -11.510673 13.124882 5.000000
      vertex -10.193614 15.406094 5.000000
    endloop
  endfacet
  facet normal -0.951057 0.309017 0.000000
    outer loop
      vertex -12.324660 10.619687 0.000000
      vertex -12.324660 10.619687 5.000000
      vertex -11.510673 13.124882 0.000000
    endloop
  endfacet
  facet normal -0.951057 0.309017 0.000000
    outer loop
      vertex -11.510673 13.124882 0.000000
      vertex -12.324660 10.619687 5.000000
      vertex -11.510673 13.124882 5.000000
    endloop
  endfacet
  facet normal -0.994522 0.104528 0.000000
    outer loop
      vertex -12.389792 10.000000 0.000000
      vertex -12.389792 10.000000 5.000000
      vertex -12.324660 10.619687 0.000000
    endloop
  endfacet
  facet normal -0.994522 0.104528 0.000000
    outer loop
      vertex -12.324660 10.619687 0.000000
      vertex -12.389792 10.000000 5.000000
      vertex -12.324660 10.619687 5.000000
    endloop
  endfacet
  facet normal 0.000000 1.000000 0.000000
    outer loop
      vertex -18.170585 10.000000 0.000000
      vertex -18.170585 10.000000 5.000000
      vertex -12.389792 10.000000 0.000000
    endloop
  endfacet
  facet normal 0.000000 1.000000 0.000000
    outer loop
      vertex -12.389792 10.000000 0.000000
      vertex -18.170585 10.000000 5.000000
      vertex -12.389792 10.000000 5.000000
    endloop
  endfacet
  facet normal 0.781832 0.623490 0.000000
    outer loop
      vertex -18.170585 10.000000 0.000000
      vertex -19.287819 11.400967 0.000000
      vertex -19.287819 11.400967 5.000000
    endloop
  endfacet
  facet normal 0.781832 0.623490 -0.000000
    outer loop
      vertex -18.170585 10.000000 5.000000
      vertex -18.170585 10.000000 0.000000
      vertex -19.287819 11.400967 5.000000
    endloop
  endfacet
  facet normal 0.433883 0.900969 0.000000
    outer loop
      vertex -21.032034 12.240936 0.000000
      vertex -21.032034 12.240936 5.000000
      vertex -19.287819 11.400967 0.000000
    endloop
  endfacet
  facet normal 0.433883 0.900969 0.000000
    outer loop
      vertex -19.287819 11.400967 0.000000
      vertex -21.032034 12.240936 5.000000
      vertex -19.287819 11.400967 5.000000
    endloop
  endfacet
  facet normal 0.000000 1.000000 0.000000
    outer loop
      vertex -22.967966 12.240936 0.000000
      vertex -22.967966 12.240936 5.000000
      vertex -21.032034 12.240936 0.000000
    endloop
  endfacet
  facet normal 0.000000 1.000000 0.000000
    outer loop
      vertex -21.032034 12.240936 0.000000
      vertex -22.967966 12.240936 5.000000
      vertex -21.032034 12.240936 5.000000
    endloop
  endfacet
  facet normal -0.433883 0.900969 0.000000
    outer loop
      vertex -24.712181 11.400967 0.000000
      vertex -24.712181 11.400967 5.000000
      vertex -22.967966 12.240936 0.000000
    endloop
  endfacet
  facet normal -0.433883 0.900969 0.000000
    outer loop
      vertex -22.967966 12.240936 0.000000
      vertex -24.712181 11.400967 5.000000
      vertex -22.967966 12.240936 5.000000
    endloop
  endfacet
  facet normal -0.781832 0.623490 0.000000
    outer loop
      vertex -25.829415 10.000000 0.000000
      vertex -25.829415 10.000000 5.000000
      vertex -24.712181 11.400967 0.000000
    endloop
  endfacet
  facet normal -0.781832 0.623490 0.000000
    outer loop
      vertex -24.712181 11.400967 0.000000
      vertex -25.829415 10.000000 5.000000
      vertex -24.712181 11.400967 5.000000
    endloop
  endfacet
  facet normal 0.923880 0.382683 0.000000
    outer loop
      vertex -24.350000 8.000000 5.000000
      vertex -23.661701 6.338299 5.000000
      vertex -23.661701 6.338299 0.000000
    endloop
  endfacet
  facet normal 0.923880 0.382683 0.000000
    outer loop
      vertex -24.350000 8.000000 0.000000
      vertex -24.350000 8.000000 5.000000
      vertex -23.661701 6.338299 0.000000
    endloop
  endfacet
  facet normal 0.923880 -0.382683 0.000000
    outer loop
      vertex -23.661701 9.661701 0.000000
      vertex -23.661701 9.661701 5.000000
      vertex -24.350000 8.000000 5.000000
    endloop
  endfacet
  facet normal 0.923880 -0.382683 0.000000
    outer loop
      vertex -24.350000 8.000000 0.000000
      vertex -23.661701 9.661701 0.000000
      vertex -24.350000 8.000000 5.000000
    endloop
  endfacet
  facet normal 0.382683 -0.923880 0.000000
    outer loop
      vertex -22.000000 10.350000 0.000000
      vertex -22.000000 10.350000 5.000000
      vertex -23.661701 9.661701 5.000000
    endloop
  endfacet
  facet normal 0.382683 -0.923880 0.000000
    outer loop
      vertex -23.661701 9.661701 0.000000
      vertex -22.000000 10.350000 0.000000
      vertex -23.661701 9.661701 5.000000
    endloop
  endfacet
  facet normal -0.382683 -0.923880 -0.000000
    outer loop
      vertex -20.338299 9.661701 0.000000
      vertex -20.338299 9.661701 5.000000
      vertex -22.000000 10.350000 5.000000
    endloop
  endfacet
  facet normal -0.382683 -0.923880 -0.000000
    outer loop
      vertex -22.000000 10.350000 0.000000
      vertex -20.338299 9.661701 0.000000
      vertex -22.000000 10.350000 5.000000
    endloop
  endfacet
  facet normal -0.923880 -0.382683 0.000000
    outer loop
      vertex -19.650000 8.000000 5.000000
      vertex -20.338299 9.661701 5.000000
      vertex -19.650000 8.000000 0.000000
    endloop
  endfacet
  facet normal -0.923880 -0.382683 0.000000
    outer loop
      vertex -19.650000 8.000000 0.000000
      vertex -20.338299 9.661701 5.000000
      vertex -20.338299 9.661701 0.000000
    endloop
  endfacet
  facet normal -0.923880 0.382683 0.000000
    outer loop
      vertex -19.650000 8.000000 5.000000
      vertex -19.650000 8.000000 0.000000
      vertex -20.338299 6.338299 5.000000
    endloop
  endfacet
  facet normal -0.923880 0.382683 0.000000
    outer loop
      vertex -20.338299 6.338299 5.000000
      vertex -19.650000 8.000000 0.000000
      vertex -20.338299 6.338299 0.000000
    endloop
  endfacet
  facet normal -0.382683 0.923880 0.000000
    outer loop
      vertex -20.338299 6.338299 5.000000
      vertex -20.338299 6.338299 0.000000
      vertex -22.000000 5.650000 5.000000
    endloop
  endfacet
  facet normal -0.382683 0.923880 0.000000
    outer loop
      vertex -22.000000 5.650000 5.000000
      vertex -20.338299 6.338299 0.000000
      vertex -22.000000 5.650000 0.000000
    endloop
  endfacet
  facet normal 0.382683 0.923880 -0.000000
    outer loop
      vertex -22.000000 5.650000 5.000000
      vertex -22.000000 5.650000 0.000000
      vertex -23.661701 6.338299 5.000000
    endloop
  endfacet
  facet normal 0.382683 0.923880 -0.000000
    outer loop
      vertex -23.661701 6.338299 5.000000
      vertex -22.000000 5.650000 0.000000
      vertex -23.661701 6.338299 0.000000
    endloop
  endfacet
  facet normal 0.993712 0.111965 0.000000
    outer loop
      vertex -8.600000 8.000000 5.000000
      vertex -8.384380 6.086320 5.000000
      vertex -8.384380 6.086320 0.000000
    endloop
  endfacet
  facet normal 0.993712 0.111965 0.000000
    outer loop
      vertex -8.600000 8.000000 0.000000
      vertex -8.600000 8.000000 5.000000
      vertex -8.384380 6.086320 0.000000
    endloop
  endfacet
  facet normal 0.993712 -0.111965 0.000000
    outer loop
      vertex -8.384380 9.913680 0.000000
      vertex -8.384380 9.913680 5.000000
      vertex -8.600000 8.000000 5.000000
    endloop
  endfacet
  facet normal 0.993712 -0.111965 0.000000
    outer loop
      vertex -8.600000 8.000000 0.000000
      vertex -8.384380 9.913680 0.000000
      vertex -8.600000 8.000000 5.000000
    endloop
  endfacet
  facet normal 0.943883 -0.330279 0.000000
    outer loop
      vertex -7.748332 11.731400 0.000000
      vertex -7.748332 11.731400 5.000000
      vertex -8.384380 9.913680 5.000000
    endloop
  endfacet
  facet normal 0.943883 -0.330279 0.000000
    outer loop
      vertex -8.384380 9.913680 0.000000
      vertex -7.748332 11.731400 0.000000
      vertex -8.384380 9.913680 5.000000
    endloop
  endfacet
  facet normal 0.846724 -0.532032 0.000000
    outer loop
      vertex -6.723751 13.362012 0.000000
      vertex -6.723751 13.362012 5.000000
      vertex -7.748332 11.731400 5.000000
    endloop
  endfacet
  facet normal 0.846724 -0.532032 0.000000
    outer loop
      vertex -7.748332 11.731400 0.000000
      vertex -6.723751 13.362012 0.000000
      vertex -7.748332 11.731400 5.000000
    endloop
  endfacet
  facet normal 0.707107 -0.707107 0.000000
    outer loop
      vertex -5.362012 14.723751 0.000000
      vertex -5.362012 14.723751 5.000000
      vertex -6.723751 13.362012 5.000000
    endloop
  endfacet
  facet normal 0.707107 -0.707107 0.000000
    outer loop
      vertex -6.723751 13.362012 0.000000
      vertex -5.362012 14.723751 0.000000
      vertex -6.723751 13.362012 5.000000
    endloop
  endfacet
  facet normal 0.532032 -0.846724 0.000000
    outer loop
      vertex -3.731400 15.748332 0.000000
      vertex -3.731400 15.748332 5.000000
      vertex -5.362012 14.723751 5.000000
    endloop
  endfacet
  facet normal 0.532032 -0.846724 0.000000
    outer loop
      vertex -5.362012 14.723751 0.000000
      vertex -3.731400 15.748332 0.000000
      vertex -5.362012 14.723751 5.000000
    endloop
  endfacet
  facet normal 0.330279 -0.943883 0.000000
    outer loop
      vertex -1.913680 16.384380 0.000000
      vertex -1.913680 16.384380 5.000000
      vertex -3.731400 15.748332 5.000000
    endloop
  endfacet
  facet normal 0.330279 -0.943883 0.000000
    outer loop
      vertex -3.731400 15.748332 0.000000
      vertex -1.913680 16.384380 0.000000
      vertex -3.731400 15.748332 5.000000
    endloop
  endfacet
  facet normal 0.111965 -0.993712 0.000000
    outer loop
      vertex 0.000000 16.600000 0.000000
      vertex 0.000000 16.600000 5.000000
      vertex -1.913680 16.384380 5.000000
    endloop
  endfacet
  facet normal 0.111965 -0.993712 0.000000
    outer loop
      vertex -1.913680 16.384380 0.000000
      vertex 0.000000 16.600000 0.000000
      vertex -1.913680 16.384380 5.000000
    endloop
  endfacet
  facet normal -0.111965 -0.993712 -0.000000
    outer loop
      vertex 1.913680 16.384380 0.000000
      vertex 1.913680 16.384380 5.000000
      vertex 0.000000 16.600000 5.000000
    endloop
  endfacet
  facet normal -0.111965 -0.993712 -0.000000
    outer loop
      vertex 0.000000 16.600000 0.000000
      vertex 1.913680 16.384380 0.000000
      vertex 0.000000 16.600000 5.000000
    endloop
  endfacet
  facet normal -0.330279 -0.943883 -0.000000
    outer loop
      vertex 3.731400 15.748332 0.000000
      vertex 3.731400 15.748332 5.000000
      vertex 1.913680 16.384380 5.000000
    endloop
  endfacet
  facet normal -0.330279 -0.943883 -0.000000
    outer loop
      vertex 1.913680 16.384380 0.000000
      vertex 3.731400 15.748332 0.000000
      vertex 1.913680 16.384380 5.000000
    endloop
  endfacet
  facet normal -0.532032 -0.846724 -0.000000
    outer loop
      vertex 5.362012 14.723751 0.000000
      vertex 5.362012 14.723751 5.000000
      vertex 3.731400 15.748332 5.000000
    endloop
  endfacet
  facet normal -0.532032 -0.846724 -0.000000
    outer loop
      vertex 3.731400 15.748332 0.000000
      vertex 5.362012 14.723751 0.000000
      vertex 3.731400 15.748332 5.000000
    endloop
  endfacet
  facet normal -0.707107 -0.707107 -0.000000
    outer loop
      vertex 6.723751 13.362012 0.000000
      vertex 6.723751 13.362012 5.000000
      vertex 5.362012 14.723751 5.000000
    endloop
  endfacet
  facet normal -0.707107 -0.707107 -0.000000
    outer loop
      vertex 5.362012 14.723751 0.000000
      vertex 6.723751 13.362012 0.000000
      vertex 5.362012 14.723751 5.000000
    endloop
  endfacet
  facet normal -0.846724 -0.532032 0.000000
    outer loop
      vertex 7.748332 11.731400 5.000000
      vertex 6.723751 13.362012 5.000000
      vertex 7.748332 11.731400 0.000000
    endloop
  endfacet
  facet normal -0.846724 -0.532032 0.000000
    outer loop
      vertex 7.748332 11.731400 0.000000
      vertex 6.723751 13.362012 5.000000
      vertex 6.723751 13.362012 0.000000
    endloop
  endfacet
  facet normal -0.943883 -0.330279 0.000000
    outer loop
      vertex 8.384380 9.913680 5.000000
      vertex 7.748332 11.731400 5.000000
      vertex 8.384380 9.913680 0.000000
    endloop
  endfacet
  facet normal -0.943883 -0.330279 0.000000
    outer loop
      vertex 8.384380 9.913680 0.000000
      vertex 7.748332 11.731400 5.000000
      vertex 7.748332 11.731400 0.000000
    endloop
  endfacet
  facet normal -0.993712 -0.111965 0.000000
    outer loop
      vertex 8.600000 8.000000 5.000000
      vertex 8.384380 9.913680 5.000000
      vertex 8.600000 8.000000 0.000000
    endloop
  endfacet
  facet normal -0.993712 -0.111965 0.000000
    outer loop
      vertex 8.600000 8.000000 0.000000
      vertex 8.384380 9.913680 5.000000
      vertex 8.384380 9.913680 0.000000
    endloop
  endfacet
  facet normal -0.993712 0.111965 0.000000
    outer loop
      vertex 8.600000 8.000000 5.000000
      vertex 8.600000 8.000000 0.000000
      vertex 8.384380 6.086320 5.000000
    endloop
  endfacet
  facet normal -0.993712 0.111965 0.000000
    outer loop
      vertex 8.384380 6.086320 5.000000
      vertex 8.600000 8.000000 0.000000
      vertex 8.384380 6.086320 0.000000
    endloop
  endfacet
  facet normal -0.943883 0.330279 0.000000
    outer loop
      vertex 8.384380 6.086320 5.000000
      vertex 8.384380 6.086320 0.000000
      vertex 7.748332 4.268600 5.000000
    endloop
  endfacet
  facet normal -0.943883 0.330279 0.000000
    outer loop
      vertex 7.748332 4.268600 5.000000
      vertex 8.384380 6.086320 0.000000
      vertex 7.748332 4.268600 0.000000
    endloop
  endfacet
  facet normal -0.846724 0.532032 0.000000
    outer loop
      vertex 7.748332 4.268600 5.000000
      vertex 7.748332 4.268600 0.000000
      vertex 6.723751 2.637988 5.000000
    endloop
  endfacet
  facet normal -0.846724 0.532032 0.000000
    outer loop
      vertex 6.723751 2.637988 5.000000
      vertex 7.748332 4.268600 0.000000
      vertex 6.723751 2.637988 0.000000
    endloop
  endfacet
  facet normal -0.707107 0.707107 0.000000
    outer loop
      vertex 6.723751 2.637988 5.000000
      vertex 6.723751 2.637988 0.000000
      vertex 5.362012 1.276249 5.000000
    endloop
  endfacet
  facet normal -0.707107 0.707107 0.000000
    outer loop
      vertex 5.362012 1.276249 5.000000
      vertex 6.723751 2.637988 0.000000
      vertex 5.362012 1.276249 0.000000
    endloop
  endfacet
  facet normal -0.532032 0.846724 0.000000
    outer loop
      vertex 5.362012 1.276249 5.000000
      vertex 5.362012 1.276249 0.000000
      vertex 3.731400 0.251668 5.000000
    endloop
  endfacet
  facet normal -0.532032 0.846724 0.000000
    outer loop
      vertex 3.731400 0.251668 5.000000
      vertex 5.362012 1.276249 0.000000
      vertex 3.731400 0.251668 0.000000
    endloop
  endfacet
  facet normal -0.330279 0.943883 0.000000
    outer loop
      vertex 3.731400 0.251668 5.000000
      vertex 3.731400 0.251668 0.000000
      vertex 1.913680 -0.384380 5.000000
    endloop
  endfacet
  facet normal -0.330279 0.943883 0.000000
    outer loop
      vertex 1.913680 -0.384380 5.000000
      vertex 3.731400 0.251668 0.000000
      vertex 1.913680 -0.384380 0.000000
    endloop
  endfacet
  facet normal -0.111965 0.993712 0.000000
    outer loop
      vertex 1.913680 -0.384380 5.000000
      vertex 1.913680 -0.384380 0.000000
      vertex 0.000000 -0.600000 5.000000
    endloop
  endfacet
  facet normal -0.111965 0.993712 0.000000
    outer loop
      vertex 0.000000 -0.600000 5.000000
      vertex 1.913680 -0.384380 0.000000
      vertex 0.000000 -0.600000 0.000000
    endloop
  endfacet
  facet normal 0.111965 0.993712 -0.000000
    outer loop
      vertex 0.000000 -0.600000 5.000000
      vertex 0.000000 -0.600000 0.000000
      vertex -1.913680 -0.384380 5.000000
    endloop
  endfacet
  facet normal 0.111965 0.993712 -0.000000
    outer loop
      vertex -1.913680 -0.384380 5.000000
      vertex 0.000000 -0.600000 0.000000
      vertex -1.913680 -0.384380 0.000000
    endloop
  endfacet
  facet normal 0.330279 0.943883 -0.000000
    outer loop
      vertex -1.913680 -0.384380 5.000000
      vertex -1.913680 -0.384380 0.000000
      vertex -3.731400 0.251668 5.000000
    endloop
  endfacet
  facet normal 0.330279 0.943883 -0.000000
    outer loop
      vertex -3.731400 0.251668 5.000000
      vertex -1.913680 -0.384380 0.000000
      vertex -3.731400 0.251668 0.000000
    endloop
  endfacet
  facet normal 0.532032 0.846724 -0.000000
    outer loop
      vertex -3.731400 0.251668 5.000000
      vertex -3.731400 0.251668 0.000000
      vertex -5.362012 1.276249 5.000000
    endloop
  endfacet
  facet normal 0.532032 0.846724 -0.000000
    outer loop
      vertex -5.362012 1.276249 5.000000
      vertex -3.731400 0.251668 0.000000
      vertex -5.362012 1.276249 0.000000
    endloop
  endfacet
  facet normal 0.707107 0.707107 -0.000000
    outer loop
      vertex -5.362012 1.276249 5.000000
      vertex -5.362012 1.276249 0.000000
      vertex -6.723751 2.637988 5.000000
    endloop
  endfacet
  facet normal 0.707107 0.707107 -0.000000
    outer loop
      vertex -6.723751 2.637988 5.000000
      vertex -5.362012 1.276249 0.000000
      vertex -6.723751 2.637988 0.000000
    endloop
  endfacet
  facet normal 0.846724 0.532032 0.000000
    outer loop
      vertex -7.748332 4.268600 5.000000
      vertex -6.723751 2.637988 5.000000
      vertex -6.723751 2.637988 0.000000
    endloop
  endfacet
  facet normal 0.846724 0.532032 0.000000
    outer loop
      vertex -7.748332 4.268600 0.000000
      vertex -7.748332 4.268600 5.000000
      vertex -6.723751 2.637988 0.000000
    endloop
  endfacet
  facet normal 0.943883 0.330279 0.000000
    outer loop
      vertex -8.384380 6.086320 5.000000
      vertex -7.748332 4.268600 5.000000
      vertex -7.748332 4.268600 0.000000
    endloop
  endfacet
  facet normal 0.943883 0.330279 0.000000
    outer loop
      vertex -8.384380 6.086320 0.000000
      vertex -8.384380 6.086320 5.000000
      vertex -7.748332 4.268600 0.000000
    endloop
  endfacet
  facet normal 0.923880 -0.382683 0.000000
    outer loop
      vertex -1.661701 -15.338299 0.000000
      vertex -1.661701 -15.338299 1.500000
      vertex -2.350000 -17.000000 1.500000
    endloop
  endfacet
  facet normal 0.923880 -0.382683 0.000000
    outer loop
      vertex -2.350000 -17.000000 0.000000
      vertex -1.661701 -15.338299 0.000000
      vertex -2.350000 -17.000000 1.500000
    endloop
  endfacet
  facet normal 0.923880 0.382683 0.000000
    outer loop
      vertex -2.350000 -17.000000 1.500000
      vertex -1.661701 -18.661701 1.500000
      vertex -1.661701 -18.661701 0.000000
    endloop
  endfacet
  facet normal 0.923880 0.382683 0.000000
    outer loop
      vertex -2.350000 -17.000000 0.000000
      vertex -2.350000 -17.000000 1.500000
      vertex -1.661701 -18.661701 0.000000
    endloop
  endfacet
  facet normal 0.382683 -0.923880 0.000000
    outer loop
      vertex 0.000000 -14.650000 0.000000
      vertex 0.000000 -14.650000 1.500000
      vertex -1.661701 -15.338299 1.500000
    endloop
  endfacet
  facet normal 0.382683 -0.923880 0.000000
    outer loop
      vertex -1.661701 -15.338299 0.000000
      vertex 0.000000 -14.650000 0.000000
      vertex -1.661701 -15.338299 1.500000
    endloop
  endfacet
  facet normal -0.382683 -0.923880 -0.000000
    outer loop
      vertex 1.661701 -15.338299 0.000000
      vertex 1.661701 -15.338299 1.500000
      vertex 0.000000 -14.650000 1.500000
    endloop
  endfacet
  facet normal -0.382683 -0.923880 -0.000000
    outer loop
      vertex 0.000000 -14.650000 0.000000
      vertex 1.661701 -15.338299 0.000000
      vertex 0.000000 -14.650000 1.500000
    endloop
  endfacet
  facet normal -0.923880 -0.382683 0.000000
    outer loop
      vertex 2.350000 -17.000000 1.500000
      vertex 1.661701 -15.338299 1.500000
      vertex 2.350000 -17.000000 0.000000
    endloop
  endfacet
  facet normal -0.923880 -0.382683 0.000000
    outer loop
      vertex 2.350000 -17.000000 0.000000
      vertex 1.661701 -15.338299 1.500000
      vertex 1.661701 -15.338299 0.000000
    endloop
  endfacet
  facet normal -0.923880 0.382683 0.000000
    outer loop
      vertex 2.350000 -17.000000 1.500000
      vertex 2.350000 -17.000000 0.000000
      vertex 1.661701 -18.661701 1.500000
    endloop
  endfacet
  facet normal -0.923880 0.382683 0.000000
    outer loop
      vertex 1.661701 -18.661701 1.500000
      vertex 2.350000 -17.000000 0.000000
      vertex 1.661701 -18.661701 0.000000
    endloop
  endfacet
  facet normal -0.382683 0.923880 0.000000
    outer loop
      vertex 1.661701 -18.661701 1.500000
      vertex 1.661701 -18.661701 0.000000
      vertex 0.000000 -19.350000 1.500000
    endloop
  endfacet
  facet normal -0.382683 0.923880 0.000000
    outer loop
      vertex 0.000000 -19.350000 1.500000
      vertex 1.661701 -18.661701 0.000000
      vertex 0.000000 -19.350000 0.000000
    endloop
  endfacet
  facet normal 0.382683 0.923880 -0.000000
    outer loop
      vertex 0.000000 -19.350000 1.500000
      vertex 0.000000 -19.350000 0.000000
      vertex -1.661701 -18.661701 1.500000
    endloop
  endfacet
  facet normal 0.382683 0.923880 -0.000000
    outer loop
      vertex -1.661701 -18.661701 1.500000
      vertex 0.000000 -19.350000 0.000000
      vertex -1.661701 -18.661701 0.000000
    endloop
  endfacet
  facet normal 0.923880 0.382683 0.000000
    outer loop
      vertex -2.350000 33.000000 5.000000
      vertex -1.661701 31.338299 5.000000
      vertex -1.661701 31.338299 0.000000
    endloop
  endfacet
  facet normal 0.923880 0.382683 0.000000
    outer loop
      vertex -2.350000 33.000000 0.000000
      vertex -2.350000 33.000000 5.000000
      vertex -1.661701 31.338299 0.000000
    endloop
  endfacet
  facet normal 0.923880 -0.382683 0.000000
    outer loop
      vertex -1.661701 34.661701 0.000000
      vertex -1.661701 34.661701 5.000000
      vertex -2.350000 33.000000 5.000000
    endloop
  endfacet
  facet normal 0.923880 -0.382683 0.000000
    outer loop
      vertex -2.350000 33.000000 0.000000
      vertex -1.661701 34.661701 0.000000
      vertex -2.350000 33.000000 5.000000
    endloop
  endfacet
  facet normal 0.382683 -0.923880 0.000000
    outer loop
      vertex 0.000000 35.350000 0.000000
      vertex 0.000000 35.350000 5.000000
      vertex -1.661701 34.661701 5.000000
    endloop
  endfacet
  facet normal 0.382683 -0.923880 0.000000
    outer loop
      vertex -1.661701 34.661701 0.000000
      vertex 0.000000 35.350000 0.000000
      vertex -1.661701 34.661701 5.000000
    endloop
  endfacet
  facet normal -0.382683 -0.923880 -0.000000
    outer loop
      vertex 1.661701 34.661701 0.000000
      vertex 1.661701 34.661701 5.000000
      vertex 0.000000 35.350000 5.000000
    endloop
  endfacet
  facet normal -0.382683 -0.923880 -0.000000
    outer loop
      vertex 0.000000 35.350000 0.000000
      vertex 1.661701 34.661701 0.000000
      vertex 0.000000 35.350000 5.000000
    endloop
  endfacet
  facet normal -0.923880 -0.382683 0.000000
    outer loop
      vertex 2.350000 33.000000 5.000000
      vertex 1.661701 34.661701 5.000000
      vertex 2.350000 33.000000 0.000000
    endloop
  endfacet
  facet normal -0.923880 -0.382683 0.000000
    outer loop
      vertex 2.350000 33.000000 0.000000
      vertex 1.661701 34.661701 5.000000
      vertex 1.661701 34.661701 0.000000
    endloop
  endfacet
  facet normal -0.923880 0.382683 0.000000
    outer loop
      vertex 2.350000 33.000000 5.000000
      vertex 2.350000 33.000000 0.000000
      vertex 1.661701 31.338299 5.000000
    endloop
  endfacet
  facet normal -0.923880 0.382683 0.000000
    outer loop
      vertex 1.661701 31.338299 5.000000
      vertex 2.350000 33.000000 0.000000
      vertex 1.661701 31.338299 0.000000
    endloop
  endfacet
  facet normal -0.382683 0.923880 0.000000
    outer loop
      vertex 1.661701 31.338299 5.000000
      vertex 1.661701 31.338299 0.000000
      vertex 0.000000 30.650000 5.000000
    endloop
  endfacet
  facet normal -0.382683 0.923880 0.000000
    outer loop
      vertex 0.000000 30.650000 5.000000
      vertex 1.661701 31.338299 0.000000
      vertex 0.000000 30.650000 0.000000
    endloop
  endfacet
  facet normal 0.382683 0.923880 -0.000000
    outer loop
      vertex 0.000000 30.650000 5.000000
      vertex 0.000000 30.650000 0.000000
      vertex -1.661701 31.338299 5.000000
    endloop
  endfacet
  facet normal 0.382683 0.923880 -0.000000
    outer loop
      vertex -1.661701 31.338299 5.000000
      vertex 0.000000 30.650000 0.000000
      vertex -1.661701 31.338299 0.000000
    endloop
  endfacet
  facet normal 0.923880 0.382683 0.000000
    outer loop
      vertex 25.650000 8.000000 5.000000
      vertex 26.338299 6.338299 5.000000
      vertex 26.338299 6.338299 0.000000
    endloop
  endfacet
  facet normal 0.923880 0.382683 0.000000
    outer loop
      vertex 25.650000 8.000000 0.000000
      vertex 25.650000 8.000000 5.000000
      vertex 26.338299 6.338299 0.000000
    endloop
  endfacet
  facet normal 0.923880 -0.382683 0.000000
    outer loop
      vertex 26.338299 9.661701 0.000000
      vertex 26.338299 9.661701 5.000000
      vertex 25.650000 8.000000 5.000000
    endloop
  endfacet
  facet normal 0.923880 -0.382683 0.000000
    outer loop
      vertex 25.650000 8.000000 0.000000
      vertex 26.338299 9.661701 0.000000
      vertex 25.650000 8.000000 5.000000
    endloop
  endfacet
  facet normal 0.382683 -0.923880 0.000000
    outer loop
      vertex 28.000000 10.350000 0.000000
      vertex 28.000000 10.350000 5.000000
      vertex 26.338299 9.661701 5.000000
    endloop
  endfacet
  facet normal 0.382683 -0.923880 0.000000
    outer loop
      vertex 26.338299 9.661701 0.000000
      vertex 28.000000 10.350000 0.000000
      vertex 26.338299 9.661701 5.000000
    endloop
  endfacet
  facet normal -0.382683 -0.923880 -0.000000
    outer loop
      vertex 29.661701 9.661701 0.000000
      vertex 29.661701 9.661701 5.000000
      vertex 28.000000 10.350000 5.000000
    endloop
  endfacet
  facet normal -0.382683 -0.923880 -0.000000
    outer loop
      vertex 28.000000 10.350000 0.000000
      vertex 29.661701 9.661701 0.000000
      vertex 28.000000 10.350000 5.000000
    endloop
  endfacet
  facet normal -0.923880 -0.382683 0.000000
    outer loop
      vertex 30.350000 8.000000 5.000000
      vertex 29.661701 9.661701 5.000000
      vertex 30.350000 8.000000 0.000000
    endloop
  endfacet
  facet normal -0.923880 -0.382683 0.000000
    outer loop
      vertex 30.350000 8.000000 0.000000
      vertex 29.661701 9.661701 5.000000
      vertex 29.661701 9.661701 0.000000
    endloop
  endfacet
  facet normal -0.923880 0.382683 0.000000
    outer loop
      vertex 30.350000 8.000000 5.000000
      vertex 30.350000 8.000000 0.000000
      vertex 29.661701 6.338299 5.000000
    endloop
  endfacet
  facet normal -0.923880 0.382683 0.000000
    outer loop
      vertex 29.661701 6.338299 5.000000
      vertex 30.350000 8.000000 0.000000
      vertex 29.661701 6.338299 0.000000
    endloop
  endfacet
  facet normal -0.382683 0.923880 0.000000
    outer loop
      vertex 29.661701 6.338299 5.000000
      vertex 29.661701 6.338299 0.000000
      vertex 28.000000 5.650000 5.000000
    endloop
  endfacet
  facet normal -0.382683 0.923880 0.000000
    outer loop
      vertex 28.000000 5.650000 5.000000
      vertex 29.661701 6.338299 0.000000
      vertex 28.000000 5.650000 0.000000
    endloop
  endfacet
  facet normal 0.382683 0.923880 -0.000000
    outer loop
      vertex 28.000000 5.650000 5.000000
      vertex 28.000000 5.650000 0.000000
      vertex 26.338299 6.338299 5.000000
    endloop
  endfacet
  facet normal 0.382683 0.923880 -0.000000
    outer loop
      vertex 26.338299 6.338299 5.000000
      vertex 28.000000 5.650000 0.000000
      vertex 26.338299 6.338299 0.000000
    endloop
  endfacet
  facet normal 0.885456 0.464723 0.000000
    outer loop
      vertex -3.738126 -17.921365 5.000000
      vertex -2.881766 -19.553022 5.000000
      vertex -2.881766 -19.553022 1.500000
    endloop
  endfacet
  facet normal 0.885456 0.464723 0.000000
    outer loop
      vertex -3.738126 -17.921365 1.500000
      vertex -3.738126 -17.921365 5.000000
      vertex -2.881766 -19.553022 1.500000
    endloop
  endfacet
  facet normal 1.000000 0.000000 0.000000
    outer loop
      vertex -3.738126 -16.078635 1.500000
      vertex -3.738126 -16.078635 5.000000
      vertex -3.738126 -17.921365 5.000000
    endloop
  endfacet
  facet normal 1.000000 0.000000 0.000000
    outer loop
      vertex -3.738126 -17.921365 1.500000
      vertex -3.738126 -16.078635 1.500000
      vertex -3.738126 -17.921365 5.000000
    endloop
  endfacet
  facet normal 0.568065 0.822984 -0.000000
    outer loop
      vertex -1.365229 -20.599813 5.000000
      vertex -1.365229 -20.599813 1.500000
      vertex -2.881766 -19.553022 5.000000
    endloop
  endfacet
  facet normal 0.568065 0.822984 -0.000000
    outer loop
      vertex -2.881766 -19.553022 5.000000
      vertex -1.365229 -20.599813 1.500000
      vertex -2.881766 -19.553022 1.500000
    endloop
  endfacet
  facet normal 0.120536 0.992709 -0.000000
    outer loop
      vertex 0.464066 -20.821929 5.000000
      vertex 0.464066 -20.821929 1.500000
      vertex -1.365229 -20.599813 5.000000
    endloop
  endfacet
  facet normal 0.120536 0.992709 -0.000000
    outer loop
      vertex -1.365229 -20.599813 5.000000
      vertex 0.464066 -20.821929 1.500000
      vertex -1.365229 -20.599813 1.500000
    endloop
  endfacet
  facet normal -0.354605 0.935016 0.000000
    outer loop
      vertex 2.187049 -20.168488 5.000000
      vertex 2.187049 -20.168488 1.500000
      vertex 0.464066 -20.821929 5.000000
    endloop
  endfacet
  facet normal -0.354605 0.935016 0.000000
    outer loop
      vertex 0.464066 -20.821929 5.000000
      vertex 2.187049 -20.168488 1.500000
      vertex 0.464066 -20.821929 1.500000
    endloop
  endfacet
  facet normal -0.748511 0.663123 0.000000
    outer loop
      vertex 3.409006 -18.789184 5.000000
      vertex 3.409006 -18.789184 1.500000
      vertex 2.187049 -20.168488 5.000000
    endloop
  endfacet
  facet normal -0.748511 0.663123 0.000000
    outer loop
      vertex 2.187049 -20.168488 5.000000
      vertex 3.409006 -18.789184 1.500000
      vertex 2.187049 -20.168488 1.500000
    endloop
  endfacet
  facet normal -0.970942 0.239316 0.000000
    outer loop
      vertex 3.850000 -17.000000 5.000000
      vertex 3.850000 -17.000000 1.500000
      vertex 3.409006 -18.789184 5.000000
    endloop
  endfacet
  facet normal -0.970942 0.239316 0.000000
    outer loop
      vertex 3.409006 -18.789184 5.000000
      vertex 3.850000 -17.000000 1.500000
      vertex 3.409006 -18.789184 1.500000
    endloop
  endfacet
  facet normal -0.970942 -0.239316 0.000000
    outer loop
      vertex 3.850000 -17.000000 5.000000
      vertex 3.409006 -15.210816 5.000000
      vertex 3.850000 -17.000000 1.500000
    endloop
  endfacet
  facet normal -0.970942 -0.239316 0.000000
    outer loop
      vertex 3.850000 -17.000000 1.500000
      vertex 3.409006 -15.210816 5.000000
      vertex 3.409006 -15.210816 1.500000
    endloop
  endfacet
  facet normal -0.748511 -0.663123 0.000000
    outer loop
      vertex 3.409006 -15.210816 5.000000
      vertex 2.187049 -13.831512 5.000000
      vertex 3.409006 -15.210816 1.500000
    endloop
  endfacet
  facet normal -0.748511 -0.663123 0.000000
    outer loop
      vertex 3.409006 -15.210816 1.500000
      vertex 2.187049 -13.831512 5.000000
      vertex 2.187049 -13.831512 1.500000
    endloop
  endfacet
  facet normal -0.354605 -0.935016 -0.000000
    outer loop
      vertex 2.187049 -13.831512 1.500000
      vertex 2.187049 -13.831512 5.000000
      vertex 0.464066 -13.178071 5.000000
    endloop
  endfacet
  facet normal -0.354605 -0.935016 -0.000000
    outer loop
      vertex 0.464066 -13.178071 1.500000
      vertex 2.187049 -13.831512 1.500000
      vertex 0.464066 -13.178071 5.000000
    endloop
  endfacet
  facet normal 0.120536 -0.992709 0.000000
    outer loop
      vertex 0.464066 -13.178071 1.500000
      vertex 0.464066 -13.178071 5.000000
      vertex -1.365229 -13.400187 5.000000
    endloop
  endfacet
  facet normal 0.120536 -0.992709 0.000000
    outer loop
      vertex -1.365229 -13.400187 1.500000
      vertex 0.464066 -13.178071 1.500000
      vertex -1.365229 -13.400187 5.000000
    endloop
  endfacet
  facet normal 0.568065 -0.822984 0.000000
    outer loop
      vertex -1.365229 -13.400187 1.500000
      vertex -1.365229 -13.400187 5.000000
      vertex -2.881766 -14.446978 5.000000
    endloop
  endfacet
  facet normal 0.568065 -0.822984 0.000000
    outer loop
      vertex -2.881766 -14.446978 1.500000
      vertex -1.365229 -13.400187 1.500000
      vertex -2.881766 -14.446978 5.000000
    endloop
  endfacet
  facet normal 0.885456 -0.464723 0.000000
    outer loop
      vertex -2.881766 -14.446978 1.500000
      vertex -2.881766 -14.446978 5.000000
      vertex -3.738126 -16.078635 5.000000
    endloop
  endfacet
  facet normal 0.885456 -0.464723 0.000000
    outer loop
      vertex -3.738126 -16.078635 1.500000
      vertex -2.881766 -14.446978 1.500000
      vertex -3.738126 -16.078635 5.000000
    endloop
  endfacet
  facet normal 0.000000 0.000000 1.000000
    outer loop
      vertex -2.881766 -19.553022 1.500000
      vertex -1.365229 -20.599813 1.500000
      vertex 0.464066 -20.821929 1.500000
    endloop
  endfacet
  facet normal 0.000000 -0.000000 1.000000
    outer loop
      vertex 0.000000 -19.350000 1.500000
      vertex -2.881766 -19.553022 1.500000
      vertex 2.187049 -20.168488 1.500000
    endloop
  endfacet
  facet normal -0.000000 0.000000 1.000000
    outer loop
      vertex 2.187049 -20.168488 1.500000
      vertex -2.881766 -19.553022 1.500000
      vertex 0.464066 -20.821929 1.500000
    endloop
  endfacet
  facet normal 0.000000 -0.000000 1.000000
    outer loop
      vertex 1.661701 -18.661701 1.500000
      vertex 0.000000 -19.350000 1.500000
      vertex 3.409006 -18.789184 1.500000
    endloop
  endfacet
  facet normal 0.000000 -0.000000 1.000000
    outer loop
      vertex 2.350000 -17.000000 1.500000
      vertex 1.661701 -18.661701 1.500000
      vertex 3.850000 -17.000000 1.500000
    endloop
  endfacet
  facet normal 0.000000 0.000000 1.000000
    outer loop
      vertex 1.661701 -15.338299 1.500000
      vertex 2.350000 -17.000000 1.500000
      vertex 3.409006 -15.210816 1.500000
    endloop
  endfacet
  facet normal 0.000000 0.000000 1.000000
    outer loop
      vertex -3.738126 -16.078635 1.500000
      vertex -2.881766 -19.553022 1.500000
      vertex -2.881766 -14.446978 1.500000
    endloop
  endfacet
  facet normal 0.000000 0.000000 1.000000
    outer loop
      vertex -3.738126 -17.921365 1.500000
      vertex -2.881766 -19.553022 1.500000
      vertex -3.738126 -16.078635 1.500000
    endloop
  endfacet
  facet normal 0.000000 0.000000 1.000000
    outer loop
      vertex -2.881766 -14.446978 1.500000
      vertex -2.350000 -17.000000 1.500000
      vertex -1.365229 -13.400187 1.500000
    endloop
  endfacet
  facet normal 0.000000 -0.000000 1.000000
    outer loop
      vertex -2.881766 -14.446978 1.500000
      vertex -2.881766 -19.553022 1.500000
      vertex -2.350000 -17.000000 1.500000
    endloop
  endfacet
  facet normal 0.000000 -0.000000 1.000000
    outer loop
      vertex -1.365229 -13.400187 1.500000
      vertex -1.661701 -15.338299 1.500000
      vertex 0.464066 -13.178071 1.500000
    endloop
  endfacet
  facet normal 0.000000 0.000000 1.000000
    outer loop
      vertex -1.661701 -15.338299 1.500000
      vertex 0.000000 -14.650000 1.500000
      vertex 0.464066 -13.178071 1.500000
    endloop
  endfacet
  facet normal 0.000000 -0.000000 1.000000
    outer loop
      vertex 0.464066 -13.178071 1.500000
      vertex 0.000000 -14.650000 1.500000
      vertex 2.187049 -13.831512 1.500000
    endloop
  endfacet
  facet normal 0.000000 -0.000000 1.000000
    outer loop
      vertex 2.187049 -13.831512 1.500000
      vertex 1.661701 -15.338299 1.500000
      vertex 3.409006 -15.210816 1.500000
    endloop
  endfacet
  facet normal 0.000000 -0.000000 1.000000
    outer loop
      vertex 3.409006 -15.210816 1.500000
      vertex 2.350000 -17.000000 1.500000
      vertex 3.850000 -17.000000 1.500000
    endloop
  endfacet
  facet normal 0.000000 0.000000 1.000000
    outer loop
      vertex 3.850000 -17.000000 1.500000
      vertex 1.661701 -18.661701 1.500000
      vertex 3.409006 -18.789184 1.500000
    endloop
  endfacet
  facet normal 0.000000 0.000000 1.000000
    outer loop
      vertex 3.409006 -18.789184 1.500000
      vertex 0.000000 -19.350000 1.500000
      vertex 2.187049 -20.168488 1.500000
    endloop
  endfacet
  facet normal -0.000000 0.000000 1.000000
    outer loop
      vertex 0.000000 -19.350000 1.500000
      vertex -1.661701 -18.661701 1.500000
      vertex -2.881766 -19.553022 1.500000
    endloop
  endfacet
  facet normal 0.000000 0.000000 1.000000
    outer loop
      vertex -2.350000 -17.000000 1.500000
      vertex -1.661701 -15.338299 1.500000
      vertex -1.365229 -13.400187 1.500000
    endloop
  endfacet
  facet normal 0.000000 0.000000 1.000000
    outer loop
      vertex 0.000000 -14.650000 1.500000
      vertex 1.661701 -15.338299 1.500000
      vertex 2.187049 -13.831512 1.500000
    endloop
  endfacet
  facet normal -0.000000 0.000000 1.000000
    outer loop
      vertex -1.661701 -18.661701 1.500000
      vertex -2.350000 -17.000000 1.500000
      vertex -2.881766 -19.553022 1.500000
    endloop
  endfacet
endsolid OpenSCAD_Model
